<svg xmlns="http://www.w3.org/2000/svg" xmlns:xlink="http://www.w3.org/1999/xlink" width="1680" zoomAndPan="magnify" viewBox="0 0 1260 202.499994" height="270" preserveAspectRatio="xMidYMid meet" version="1.0"><defs><g/><clipPath id="49cc1d9a77"><path d="M 14 83 L 212.464844 83 L 212.464844 201 L 14 201 Z M 14 83 " clip-rule="nonzero"/></clipPath><clipPath id="44d81077be"><path d="M 13.453125 2.132812 L 212.464844 2.132812 L 212.464844 79 L 13.453125 79 Z M 13.453125 2.132812 " clip-rule="nonzero"/></clipPath></defs><g fill="#4745d2" fill-opacity="1"><g transform="translate(256.395059, 158.183471)"><g><path d="M 12.796875 -114.25 L 35.796875 -114.25 L 35.796875 0 L 12.796875 0 Z M 12.796875 -114.25 "/></g></g></g><g fill="#4745d2" fill-opacity="1"><g transform="translate(304.985835, 158.183471)"><g><path d="M 87.78125 -114.25 L 110.859375 -114.25 L 110.859375 0 L 90.078125 0 L 35.796875 -78.625 L 35.796875 0 L 12.796875 0 L 12.796875 -114.25 L 35.640625 -114.25 L 87.78125 -38.640625 Z M 87.78125 -114.25 "/></g></g></g><g fill="#4745d2" fill-opacity="1"><g transform="translate(428.556524, 158.183471)"><g><path d="M 3 -93.71875 L 3 -114.25 L 94.421875 -114.25 L 94.421875 -93.71875 L 60.6875 -93.71875 L 60.6875 0 L 37.53125 0 L 37.53125 -93.71875 Z M 3 -93.71875 "/></g></g></g><g fill="#4745d2" fill-opacity="1"><g transform="translate(525.896097, 158.183471)"><g><path d="M 12.796875 0 L 12.796875 -114.25 L 91.265625 -114.25 L 91.1875 -94.8125 L 35.953125 -94.8125 L 35.953125 -67.078125 L 83.921875 -67.078125 L 83.921875 -48.046875 L 35.796875 -48.046875 L 35.796875 -19.671875 L 92.046875 -19.59375 L 92.046875 0 Z M 12.796875 0 "/></g></g></g><g fill="#4745d2" fill-opacity="1"><g transform="translate(626.159032, 158.183471)"><g><path d="M 101.453125 0 L 77.515625 0 L 58.953125 -44.015625 L 35.796875 -44.015625 L 35.796875 0 L 12.796875 0 L 12.796875 -114.25 L 61 -114.25 C 70.113281 -114.25 77.566406 -112.800781 83.359375 -109.90625 C 89.148438 -107.007812 93.414062 -102.992188 96.15625 -97.859375 C 98.894531 -92.722656 100.265625 -86.8125 100.265625 -80.125 C 100.265625 -74.113281 99.328125 -69.039062 97.453125 -64.90625 C 95.585938 -60.769531 93.140625 -57.332031 90.109375 -54.59375 C 87.085938 -51.851562 83.785156 -49.617188 80.203125 -47.890625 Z M 56.890625 -61.796875 C 63.054688 -61.796875 67.941406 -63.453125 71.546875 -66.765625 C 75.160156 -70.085938 76.96875 -74.351562 76.96875 -79.5625 C 76.96875 -84.832031 75.226562 -88.992188 71.75 -92.046875 C 68.269531 -95.109375 63.867188 -96.640625 58.546875 -96.640625 L 35.796875 -96.640625 L 35.796875 -61.796875 Z M 56.890625 -61.796875 "/></g></g></g><g fill="#4745d2" fill-opacity="1"><g transform="translate(736.140115, 158.183471)"><g><path d="M 107.703125 -114.25 L 68.265625 0 L 42.109375 0 L 3 -114.25 L 25.046875 -114.25 L 55.234375 -26.78125 L 85.65625 -114.25 Z M 107.703125 -114.25 "/></g></g></g><g fill="#4745d2" fill-opacity="1"><g transform="translate(846.832261, 158.183471)"><g><path d="M 104.21875 -43.53125 C 104.21875 -34.3125 102.71875 -26.316406 99.71875 -19.546875 C 96.71875 -12.785156 91.859375 -7.570312 85.140625 -3.90625 C 78.421875 -0.25 69.53125 1.578125 58.46875 1.578125 C 47.351562 1.578125 38.453125 -0.273438 31.765625 -3.984375 C 25.078125 -7.703125 20.242188 -12.984375 17.265625 -19.828125 C 14.285156 -26.679688 12.796875 -34.847656 12.796875 -44.328125 L 12.796875 -114.25 L 36.265625 -114.25 L 36.265625 -42.59375 C 36.265625 -34.050781 38.316406 -27.816406 42.421875 -23.890625 C 46.535156 -19.972656 51.882812 -18.015625 58.46875 -18.015625 C 62.84375 -18.015625 66.710938 -18.867188 70.078125 -20.578125 C 73.453125 -22.296875 76.097656 -24.957031 78.015625 -28.5625 C 79.941406 -32.175781 80.90625 -36.851562 80.90625 -42.59375 L 80.90625 -114.25 L 104.21875 -114.25 Z M 104.21875 -43.53125 "/></g></g></g><g fill="#4745d2" fill-opacity="1"><g transform="translate(961.237877, 158.183471)"><g><path d="M 12.796875 0 L 12.796875 -114.25 L 91.265625 -114.25 L 91.1875 -94.8125 L 35.953125 -94.8125 L 35.953125 -67.078125 L 83.921875 -67.078125 L 83.921875 -48.046875 L 35.796875 -48.046875 L 35.796875 -19.671875 L 92.046875 -19.59375 L 92.046875 0 Z M 12.796875 0 "/></g></g></g><g fill="#4745d2" fill-opacity="1"><g transform="translate(1061.500812, 158.183471)"><g/></g></g><g fill="#4745d2" fill-opacity="1"><g transform="translate(1095.000812, 158.183471)"><g><path d="M 4.34375 0 L 45.28125 -114.25 L 69.609375 -114.25 L 110.46875 0 L 87.46875 0 L 78.140625 -26.46875 L 37.0625 -26.46875 L 27.5 0 Z M 42.1875 -46.625 L 72.609375 -46.625 L 57.53125 -91.96875 Z M 42.1875 -46.625 "/></g></g></g><g fill="#4745d2" fill-opacity="1"><g transform="translate(1209.801448, 158.183471)"><g><path d="M 12.796875 -114.25 L 35.796875 -114.25 L 35.796875 0 L 12.796875 0 Z M 12.796875 -114.25 "/></g></g></g><g clip-path="url(#49cc1d9a77)"><path fill="#4745d2" d="M 210.5625 129.578125 C 207.832031 123.113281 205.152344 116.648438 202.421875 110.183594 C 201.082031 106.925781 199.691406 103.71875 198.351562 100.460938 C 197.011719 97.203125 195.71875 93.949219 194.28125 90.738281 C 193.035156 87.914062 191.167969 85.328125 188.246094 84.035156 C 185.230469 82.695312 181.972656 82.886719 178.8125 83.699219 C 175.796875 84.515625 172.921875 85.855469 170.097656 87.148438 C 167.605469 88.296875 165.117188 89.636719 163.058594 91.503906 C 161.09375 93.277344 159.800781 95.625 159.515625 98.257812 C 159.417969 98.257812 159.273438 98.257812 159.179688 98.210938 C 158.746094 98.160156 158.316406 98.113281 157.886719 98.066406 C 157.742188 98.066406 157.597656 98.019531 157.453125 98.019531 C 157.40625 98.019531 157.070312 97.96875 156.929688 97.96875 C 155.300781 97.730469 153.71875 97.492188 152.089844 97.203125 C 149.074219 96.675781 146.058594 96.054688 143.039062 95.433594 C 137.675781 94.332031 132.3125 93.183594 126.804688 92.941406 C 122.542969 92.75 118.28125 93.277344 114.257812 94.570312 C 101.089844 92.65625 87.488281 93.277344 74.417969 95.863281 C 71.878906 96.34375 69.386719 96.964844 66.898438 97.636719 C 66.707031 96.535156 66.371094 95.433594 65.796875 94.425781 C 64.457031 92.082031 62.203125 90.308594 59.90625 88.96875 C 57.367188 87.433594 54.589844 86.285156 51.8125 85.136719 C 48.988281 83.988281 45.921875 82.980469 42.859375 83.03125 C 39.648438 83.078125 36.535156 84.417969 34.523438 86.910156 C 32.464844 89.496094 31.363281 92.75 30.121094 95.769531 C 28.777344 99.023438 27.390625 102.234375 26.050781 105.488281 C 23.367188 111.859375 20.683594 118.273438 18.003906 124.644531 C 17.332031 126.273438 16.664062 127.902344 15.992188 129.480469 C 14.652344 132.691406 13.453125 136.136719 14.269531 139.632812 C 14.9375 142.507812 16.949219 144.710938 19.25 146.433594 C 21.453125 148.0625 23.988281 149.117188 26.480469 150.167969 C 29.402344 151.367188 32.324219 152.371094 35.484375 152.753906 C 37.972656 153.042969 40.605469 152.707031 42.859375 151.605469 C 44.964844 153.710938 47.261719 155.628906 49.65625 157.449219 C 51.8125 159.125 54.0625 160.703125 56.457031 162.046875 C 56.316406 162.429688 56.171875 162.761719 56.027344 163.148438 C 54.351562 167.742188 54.207031 173.105469 57.320312 177.128906 C 60 180.578125 64.359375 182.015625 68.574219 181.632812 C 69.101562 183.644531 70.152344 185.558594 71.734375 186.851562 C 73.601562 188.382812 75.902344 189.246094 78.296875 189.582031 C 79.828125 189.820312 81.40625 189.820312 82.890625 189.582031 C 83.324219 190.921875 84.042969 192.214844 85.046875 193.363281 C 86.867188 195.375 89.359375 196.476562 91.992188 196.714844 C 93.570312 196.859375 95.296875 196.714844 96.875 196.191406 C 97.976562 197.960938 99.75 199.351562 101.664062 200.117188 C 106.40625 201.984375 110.667969 199.0625 113.589844 195.472656 C 117.179688 197.050781 120.964844 198.34375 124.84375 198.632812 C 128.578125 198.917969 132.410156 197.722656 135.28125 195.28125 C 136.480469 194.273438 137.390625 193.027344 138.058594 191.6875 C 138.828125 191.785156 139.59375 191.878906 140.359375 191.925781 C 142.847656 192.023438 145.292969 191.496094 147.492188 190.441406 C 149.363281 189.582031 150.894531 187.953125 151.996094 186.230469 C 152.761719 185.03125 153.335938 183.691406 153.671875 182.300781 C 155.058594 182.398438 156.449219 182.351562 157.789062 181.964844 C 160.855469 181.152344 163.535156 179.046875 165.261719 176.410156 C 166.695312 174.257812 167.414062 171.765625 167.75 169.226562 C 168.375 169.132812 168.949219 168.988281 169.523438 168.796875 C 172.15625 167.933594 174.359375 166.210938 175.796875 163.816406 C 177.042969 161.710938 177.566406 159.21875 177.617188 156.824219 C 177.617188 155.484375 177.472656 154.09375 177.136719 152.753906 C 179.003906 152.277344 180.777344 151.652344 182.546875 150.839844 C 183.746094 151.605469 185.085938 152.179688 186.523438 152.46875 C 189.683594 153.089844 192.941406 152.5625 195.957031 151.605469 C 198.734375 150.695312 201.511719 149.546875 204.144531 148.207031 C 206.589844 146.960938 208.886719 145.378906 210.515625 143.175781 C 212.527344 140.542969 212.8125 137.191406 212.09375 134.03125 C 211.808594 132.59375 211.183594 131.0625 210.5625 129.578125 Z M 165.453125 96.007812 C 165.453125 96.007812 165.402344 96.054688 165.355469 96.101562 C 165.402344 96.007812 165.453125 95.960938 165.453125 96.007812 Z M 164.589844 97.394531 C 164.636719 97.394531 164.636719 97.394531 164.589844 97.394531 C 164.589844 97.492188 164.496094 97.683594 164.589844 97.394531 Z M 119.046875 98.304688 C 119.335938 98.257812 119.621094 98.210938 119.910156 98.160156 C 120.199219 98.113281 120.675781 98.113281 120.914062 98.019531 C 121.058594 98.019531 121.25 97.96875 121.394531 97.96875 C 121.632812 97.921875 121.921875 97.921875 122.160156 97.875 C 122.785156 97.828125 123.40625 97.777344 124.027344 97.777344 C 126.519531 97.730469 129.007812 97.921875 131.453125 98.210938 C 131.546875 98.210938 131.691406 98.257812 131.785156 98.257812 C 132.121094 98.304688 132.457031 98.355469 132.746094 98.402344 C 133.414062 98.496094 134.085938 98.59375 134.707031 98.738281 C 136 98.976562 137.292969 99.214844 138.585938 99.503906 C 144.621094 100.699219 150.65625 101.992188 156.785156 102.808594 C 157.886719 102.949219 158.9375 103.046875 160.039062 103.191406 C 160.375 104.433594 160.855469 105.679688 161.332031 106.878906 C 163.632812 112.816406 165.929688 118.707031 168.421875 124.597656 C 170.671875 129.910156 173.019531 135.226562 175.269531 140.542969 C 176.273438 142.9375 177.28125 145.332031 178.8125 147.4375 C 177.949219 147.726562 177.089844 148.015625 176.226562 148.253906 C 175.414062 148.492188 174.550781 148.636719 173.6875 148.828125 C 173.640625 148.828125 173.59375 148.828125 173.546875 148.875 C 173.402344 148.921875 173.257812 148.921875 173.113281 148.972656 C 172.828125 149.019531 172.585938 149.066406 172.300781 149.117188 C 172.300781 149.117188 172.253906 149.117188 172.203125 149.117188 C 172.109375 149.117188 172.011719 149.117188 171.917969 149.164062 C 171.34375 149.210938 170.816406 149.308594 170.242188 149.308594 C 168.085938 149.5 165.882812 149.5 163.726562 149.308594 C 163.152344 149.257812 162.625 149.210938 162.050781 149.164062 C 161.859375 149.164062 161.667969 149.117188 161.476562 149.117188 C 161.476562 149.117188 161.429688 149.117188 161.429688 149.117188 C 161.238281 149.066406 161.046875 149.066406 160.902344 149.019531 C 159.847656 148.828125 158.746094 148.636719 157.695312 148.398438 C 156.6875 148.15625 155.730469 147.871094 154.726562 147.535156 C 154.246094 147.390625 153.816406 147.199219 153.335938 147.054688 C 153.144531 146.960938 152.90625 146.914062 152.714844 146.816406 C 152.617188 146.769531 152.570312 146.769531 152.472656 146.722656 C 152.425781 146.722656 152.378906 146.671875 152.378906 146.671875 C 150.558594 145.859375 148.738281 144.902344 147.0625 143.847656 C 146.152344 143.273438 145.292969 142.699219 144.429688 142.125 C 144 141.789062 143.519531 141.5 143.089844 141.164062 C 142.898438 141.023438 142.707031 140.878906 142.5625 140.734375 C 142.417969 140.640625 142.273438 140.496094 142.128906 140.398438 C 140.40625 139.011719 138.730469 137.527344 137.199219 135.945312 C 136.289062 135.035156 135.425781 134.078125 134.613281 133.121094 C 134.421875 132.882812 134.179688 132.640625 133.988281 132.402344 C 133.894531 132.304688 133.847656 132.210938 133.75 132.113281 C 133.75 132.066406 133.652344 131.972656 133.558594 131.875 C 133.175781 131.398438 132.839844 130.917969 132.503906 130.4375 C 131.976562 129.71875 131.546875 129.003906 131.066406 128.234375 C 132.265625 128.425781 133.652344 127.851562 133.941406 126.558594 C 134.230469 125.363281 133.605469 123.878906 132.265625 123.589844 C 125.992188 122.441406 119.335938 121.292969 113.0625 123.015625 C 109.996094 123.832031 107.316406 125.410156 104.921875 127.519531 C 103.003906 129.195312 101.378906 131.203125 99.75 133.167969 C 98.886719 134.175781 98.023438 135.179688 97.117188 136.183594 C 96.683594 136.617188 96.300781 137.046875 95.871094 137.476562 C 95.679688 137.671875 95.488281 137.863281 95.296875 138.003906 C 95.054688 138.195312 94.816406 138.484375 94.53125 138.675781 C 94.480469 138.675781 94.433594 138.722656 94.386719 138.769531 C 94.289062 138.820312 94.195312 138.914062 94.144531 138.964844 C 93.90625 139.15625 93.621094 139.347656 93.332031 139.488281 C 93.042969 139.679688 92.757812 139.824219 92.519531 139.96875 C 92.277344 140.0625 91.894531 140.398438 91.65625 140.398438 C 91.75 140.351562 91.847656 140.304688 91.945312 140.304688 C 91.847656 140.351562 91.75 140.398438 91.65625 140.449219 C 91.558594 140.496094 91.464844 140.496094 91.417969 140.542969 C 91.273438 140.589844 91.128906 140.640625 90.984375 140.6875 C 90.652344 140.78125 90.316406 140.878906 90.027344 140.925781 C 89.980469 140.925781 89.882812 140.972656 89.789062 140.972656 C 89.789062 140.972656 89.789062 140.972656 89.742188 140.972656 C 89.691406 140.972656 89.597656 140.972656 89.550781 141.023438 C 89.597656 141.023438 89.644531 141.023438 89.644531 140.972656 C 89.5 140.972656 89.359375 141.023438 89.214844 141.023438 C 88.78125 141.023438 88.351562 141.023438 87.921875 141.023438 C 87.730469 141.023438 87.585938 140.972656 87.394531 140.972656 C 87.632812 140.972656 87.777344 140.972656 87.824219 140.972656 C 87.730469 140.972656 87.488281 140.972656 87.347656 140.925781 C 86.964844 140.832031 86.578125 140.734375 86.195312 140.589844 C 86.003906 140.496094 85.863281 140.398438 85.671875 140.304688 C 85.574219 140.257812 85.480469 140.160156 85.382812 140.113281 C 85.382812 140.113281 85.429688 140.160156 85.429688 140.160156 C 85.382812 140.113281 85.382812 140.113281 85.335938 140.0625 C 85.285156 140.015625 85.238281 140.015625 85.191406 139.96875 C 85.09375 139.921875 85.09375 139.871094 85.09375 139.871094 C 84.953125 139.730469 84.808594 139.585938 84.710938 139.441406 C 84.617188 139.25 84.472656 139.105469 84.378906 138.914062 C 84.328125 138.867188 84.328125 138.820312 84.28125 138.722656 C 84.28125 138.722656 84.28125 138.769531 84.28125 138.769531 C 84.28125 138.769531 84.28125 138.722656 84.28125 138.722656 C 84.28125 138.675781 84.234375 138.675781 84.234375 138.628906 C 84.136719 138.4375 84.183594 138.4375 84.234375 138.53125 C 84.183594 138.386719 84.089844 138.195312 84.089844 138.148438 C 84.042969 137.910156 83.992188 137.71875 83.945312 137.476562 C 83.945312 137.429688 83.945312 137.382812 83.945312 137.382812 C 83.945312 137.382812 83.945312 137.335938 83.945312 137.335938 C 83.945312 137.285156 83.945312 137.238281 83.898438 137.191406 C 83.898438 137.238281 83.898438 137.238281 83.898438 137.285156 C 83.851562 136.953125 83.851562 136.617188 83.851562 136.28125 C 83.851562 136.042969 83.851562 135.753906 83.898438 135.515625 C 83.898438 135.371094 83.945312 135.179688 83.945312 135.035156 C 83.945312 134.988281 83.945312 134.941406 83.945312 134.941406 C 83.945312 134.699219 84.042969 134.367188 84.089844 134.125 C 84.183594 133.742188 84.28125 133.359375 84.378906 132.929688 C 84.710938 131.683594 85.09375 130.390625 85.527344 129.195312 C 85.671875 128.859375 85.765625 128.523438 85.910156 128.234375 C 85.957031 128.09375 86.292969 127.230469 86.054688 127.851562 C 86.292969 127.183594 86.628906 126.558594 86.964844 125.890625 C 88.207031 123.304688 89.742188 120.8125 91.417969 118.464844 C 91.800781 117.941406 92.183594 117.414062 92.566406 116.886719 C 92.613281 116.789062 92.710938 116.695312 92.710938 116.695312 C 92.804688 116.550781 92.902344 116.457031 92.996094 116.3125 C 93.238281 115.976562 93.523438 115.6875 93.761719 115.355469 C 94.722656 114.253906 95.679688 113.152344 96.683594 112.097656 C 97.738281 111.042969 98.792969 109.992188 99.941406 108.984375 C 100.46875 108.507812 101.042969 108.027344 101.617188 107.546875 C 101.855469 107.355469 102.097656 107.164062 102.335938 106.972656 C 102.429688 106.878906 102.527344 106.828125 102.621094 106.734375 C 102.429688 106.878906 102.957031 106.496094 103.003906 106.445312 C 105.257812 104.769531 107.652344 103.238281 110.140625 101.945312 C 110.714844 101.65625 111.289062 101.371094 111.914062 101.082031 C 112.25 100.941406 112.535156 100.746094 112.871094 100.652344 C 112.824219 100.652344 112.824219 100.652344 112.824219 100.652344 C 112.871094 100.652344 112.917969 100.605469 112.964844 100.605469 C 113.15625 100.507812 113.347656 100.460938 113.542969 100.363281 C 114.785156 99.886719 116.03125 99.453125 117.324219 99.121094 C 117.898438 98.546875 118.472656 98.402344 119.046875 98.304688 Z M 62.300781 100.171875 Z M 61.199219 96.054688 C 61.152344 96.007812 61.101562 95.960938 61.101562 95.960938 C 61.152344 95.960938 61.152344 96.007812 61.199219 96.054688 Z M 38.929688 147.964844 C 38.789062 148.015625 38.644531 148.015625 38.5 148.0625 C 38.5 148.0625 38.453125 148.0625 38.453125 148.0625 C 37.734375 148.109375 37.0625 148.15625 36.34375 148.109375 C 36.058594 148.109375 35.722656 148.0625 35.433594 148.015625 C 35.386719 148.015625 35.339844 148.015625 35.339844 148.015625 C 35.195312 147.964844 35.003906 147.964844 34.859375 147.917969 C 34.140625 147.773438 33.425781 147.582031 32.707031 147.390625 C 31.316406 147.007812 29.976562 146.480469 28.636719 145.953125 C 28.492188 145.90625 28.394531 145.859375 28.25 145.8125 C 28.203125 145.8125 28.203125 145.761719 28.15625 145.761719 C 28.109375 145.761719 28.109375 145.761719 28.058594 145.714844 C 27.773438 145.570312 27.484375 145.476562 27.199219 145.332031 C 26.957031 145.234375 26.71875 145.09375 26.433594 144.996094 C 27.535156 144.328125 28.636719 143.703125 29.738281 143.035156 C 30.550781 142.554688 30.886719 141.40625 30.359375 140.589844 C 29.832031 139.777344 28.777344 139.441406 27.917969 139.96875 C 26.242188 140.972656 24.566406 141.933594 22.886719 142.9375 C 22.839844 142.984375 22.746094 143.035156 22.695312 143.082031 C 22.601562 143.035156 22.503906 142.984375 22.410156 142.890625 C 22.171875 142.746094 21.929688 142.554688 21.691406 142.410156 C 21.691406 142.410156 21.644531 142.363281 21.644531 142.363281 C 21.546875 142.316406 21.453125 142.21875 21.402344 142.171875 C 20.925781 141.789062 20.492188 141.355469 20.109375 140.925781 C 20.109375 140.925781 20.109375 140.925781 20.0625 140.878906 C 20.0625 140.878906 19.96875 140.734375 19.871094 140.640625 C 19.96875 140.589844 20.015625 140.589844 20.109375 140.542969 C 24.371094 138.292969 28.636719 135.992188 32.847656 133.742188 C 33.710938 133.265625 33.949219 132.113281 33.472656 131.300781 C 32.945312 130.4375 31.890625 130.199219 31.03125 130.679688 C 26.957031 132.832031 22.839844 135.035156 18.769531 137.191406 C 18.769531 137.09375 18.769531 137.046875 18.769531 136.953125 C 18.769531 136.808594 18.769531 136.664062 18.816406 136.519531 C 18.816406 136.472656 18.867188 136.136719 18.867188 136.089844 C 18.914062 135.753906 19.007812 135.417969 19.058594 135.132812 C 19.25 134.414062 19.441406 133.742188 19.726562 133.023438 C 19.917969 132.976562 20.160156 132.929688 20.351562 132.832031 C 22.457031 131.636719 24.613281 130.390625 26.71875 129.195312 C 27.535156 128.714844 27.867188 127.566406 27.34375 126.75 C 26.816406 125.9375 25.761719 125.601562 24.898438 126.128906 C 23.894531 126.703125 22.886719 127.277344 21.882812 127.851562 C 26.574219 116.648438 31.316406 105.394531 36.011719 94.1875 C 36.011719 94.140625 36.058594 94.042969 36.105469 93.949219 C 36.152344 93.851562 36.203125 93.757812 36.25 93.660156 C 36.394531 93.375 36.488281 93.085938 36.632812 92.796875 C 36.917969 92.175781 37.207031 91.601562 37.589844 91.027344 C 37.734375 90.738281 37.925781 90.5 38.117188 90.210938 C 38.117188 90.210938 38.117188 90.164062 38.164062 90.164062 C 38.164062 90.164062 38.210938 90.117188 38.210938 90.070312 C 38.308594 89.972656 38.355469 89.878906 38.453125 89.78125 C 38.691406 89.542969 38.882812 89.351562 39.121094 89.109375 C 39.121094 89.109375 39.171875 89.0625 39.171875 89.0625 C 39.171875 89.0625 39.21875 89.015625 39.265625 89.015625 C 39.410156 88.917969 39.601562 88.824219 39.746094 88.679688 C 39.890625 88.585938 40.367188 88.203125 40.558594 88.25 C 40.464844 88.296875 40.414062 88.296875 40.320312 88.34375 C 40.414062 88.296875 40.558594 88.25 40.65625 88.203125 C 40.75 88.152344 40.894531 88.105469 40.992188 88.105469 C 41.277344 88.007812 41.566406 87.960938 41.851562 87.914062 C 41.898438 87.914062 41.898438 87.914062 41.949219 87.914062 C 42.140625 87.914062 42.332031 87.867188 42.476562 87.867188 C 43.097656 87.816406 43.71875 87.867188 44.34375 87.914062 C 44.390625 87.914062 44.390625 87.914062 44.4375 87.914062 C 44.582031 87.914062 44.726562 87.960938 44.871094 88.007812 C 45.253906 88.058594 45.636719 88.152344 46.019531 88.25 C 47.40625 88.585938 48.75 89.0625 50.042969 89.589844 C 50.183594 89.636719 50.375 89.734375 50.519531 89.78125 C 50.519531 89.78125 50.757812 89.878906 50.855469 89.925781 C 50.949219 89.972656 51.09375 90.019531 51.09375 90.019531 C 51.238281 90.070312 51.382812 90.164062 51.574219 90.210938 C 52.195312 90.5 52.820312 90.738281 53.441406 91.027344 C 54.636719 91.554688 55.835938 92.128906 56.984375 92.796875 C 57.511719 93.085938 57.992188 93.421875 58.515625 93.707031 C 58.757812 93.851562 58.996094 94.042969 59.234375 94.1875 C 59.234375 94.1875 59.378906 94.28125 59.425781 94.332031 C 59.523438 94.425781 59.667969 94.523438 59.667969 94.523438 C 60.097656 94.859375 60.480469 95.242188 60.816406 95.625 C 60.863281 95.71875 60.960938 95.769531 61.007812 95.863281 C 61.101562 95.960938 61.152344 96.007812 61.152344 96.054688 C 61.292969 96.246094 61.488281 96.628906 61.535156 96.628906 C 61.628906 96.820312 61.726562 96.964844 61.820312 97.15625 C 61.820312 97.15625 61.820312 97.203125 61.820312 97.203125 C 61.820312 97.253906 61.871094 97.300781 61.871094 97.300781 C 61.917969 97.445312 61.917969 97.445312 61.871094 97.394531 C 61.871094 97.445312 61.917969 97.492188 61.917969 97.492188 C 62.011719 97.730469 62.0625 97.96875 62.109375 98.210938 C 62.109375 98.257812 62.15625 98.496094 62.15625 98.546875 C 62.15625 98.546875 62.15625 98.59375 62.15625 98.59375 C 62.15625 98.878906 62.15625 99.214844 62.15625 99.503906 C 62.15625 99.695312 62.109375 99.886719 62.109375 100.03125 C 62.011719 100.269531 62.011719 100.554688 62.011719 100.796875 C 61.917969 101.226562 61.773438 101.65625 61.628906 101.992188 C 61.292969 103.191406 60.816406 104.339844 60.386719 105.488281 C 58.277344 110.996094 56.121094 116.457031 53.824219 121.914062 C 53.824219 121.960938 53.777344 121.960938 53.777344 122.011719 C 53.730469 122.152344 53.632812 122.296875 53.585938 122.488281 C 53.441406 122.777344 53.34375 123.113281 53.203125 123.398438 C 52.914062 124.070312 52.628906 124.738281 52.339844 125.410156 C 51.8125 126.65625 51.238281 127.949219 50.710938 129.195312 C 49.65625 131.683594 48.554688 134.125 47.503906 136.617188 C 46.496094 139.011719 45.539062 141.453125 44.152344 143.65625 C 44.007812 143.894531 43.816406 144.183594 43.671875 144.421875 C 43.625 144.519531 43.527344 144.613281 43.480469 144.710938 C 43.480469 144.710938 43.433594 144.757812 43.433594 144.757812 C 43.050781 145.234375 42.617188 145.667969 42.1875 146.097656 C 42.089844 146.195312 41.996094 146.289062 41.851562 146.386719 C 41.757812 146.433594 41.707031 146.480469 41.613281 146.527344 C 41.421875 146.625 41.277344 146.769531 41.085938 146.863281 C 40.796875 147.007812 40.511719 147.152344 40.222656 147.296875 C 40.222656 147.296875 40.175781 147.296875 40.175781 147.296875 C 39.984375 147.34375 39.792969 147.4375 39.648438 147.488281 C 39.554688 147.824219 39.21875 147.917969 38.929688 147.964844 Z M 60.242188 172.773438 C 60.242188 172.773438 60.242188 172.722656 60.195312 172.722656 C 60.097656 172.4375 60.195312 172.628906 60.242188 172.773438 Z M 66.273438 176.9375 C 66.226562 176.9375 66.132812 176.9375 66.082031 176.9375 C 66.082031 176.9375 66.082031 176.9375 66.132812 176.9375 C 66.132812 176.9375 66.082031 176.9375 66.082031 176.9375 C 66.035156 176.9375 65.988281 176.9375 65.941406 176.9375 C 65.84375 176.9375 65.796875 176.890625 65.796875 176.890625 C 65.652344 176.890625 65.558594 176.84375 65.460938 176.84375 C 65.03125 176.746094 64.648438 176.652344 64.214844 176.507812 C 64.167969 176.507812 64.121094 176.460938 64.023438 176.410156 C 64.074219 176.410156 63.832031 176.316406 63.785156 176.316406 C 63.640625 176.269531 63.546875 176.171875 63.402344 176.125 C 63.066406 175.933594 62.730469 175.742188 62.394531 175.5 C 62.347656 175.453125 62.300781 175.40625 62.253906 175.40625 C 62.109375 175.261719 61.917969 175.117188 61.773438 174.976562 C 61.628906 174.832031 61.488281 174.6875 61.34375 174.542969 C 61.292969 174.496094 61.246094 174.449219 61.199219 174.398438 C 61.199219 174.398438 61.199219 174.449219 61.246094 174.449219 C 61.246094 174.449219 61.199219 174.398438 61.199219 174.398438 C 61.152344 174.351562 61.152344 174.351562 61.101562 174.304688 C 61.007812 174.207031 61.007812 174.113281 61.054688 174.207031 C 60.863281 173.921875 60.625 173.632812 60.480469 173.347656 C 60.386719 173.203125 60.335938 173.058594 60.242188 172.914062 C 60.242188 172.820312 60.144531 172.675781 60.097656 172.628906 C 59.953125 172.199219 59.808594 171.71875 59.714844 171.238281 C 59.714844 171.144531 59.667969 171.046875 59.667969 170.953125 C 59.667969 170.714844 59.617188 170.519531 59.617188 170.28125 C 59.570312 169.753906 59.617188 169.179688 59.667969 168.652344 C 59.667969 168.460938 59.808594 167.648438 59.667969 168.367188 C 59.714844 168.125 59.761719 167.886719 59.808594 167.648438 C 59.90625 167.121094 60.050781 166.59375 60.195312 166.117188 C 60.335938 165.589844 60.480469 165.109375 60.671875 164.632812 C 60.769531 164.390625 60.816406 164.199219 60.910156 163.960938 C 60.910156 163.960938 61.054688 163.625 61.054688 163.625 C 61.101562 163.53125 61.101562 163.480469 61.152344 163.433594 C 61.292969 163.148438 61.4375 162.90625 61.535156 162.621094 C 61.582031 162.570312 61.628906 162.523438 61.679688 162.429688 C 61.726562 162.285156 61.773438 162.1875 61.820312 162.046875 C 62.109375 161.519531 62.445312 160.945312 62.78125 160.417969 C 63.066406 159.9375 63.402344 159.507812 63.738281 159.027344 C 63.785156 158.980469 63.832031 158.882812 63.882812 158.835938 C 63.882812 158.835938 63.929688 158.789062 63.929688 158.789062 C 64.121094 158.550781 64.359375 158.261719 64.597656 158.023438 C 65.316406 157.207031 66.082031 156.441406 66.945312 155.773438 C 66.945312 155.773438 66.992188 155.722656 67.042969 155.675781 C 67.089844 155.628906 67.136719 155.628906 67.089844 155.628906 C 67.136719 155.582031 67.183594 155.582031 67.183594 155.53125 C 67.375 155.386719 67.617188 155.246094 67.855469 155.101562 C 68.09375 154.957031 68.382812 154.8125 68.621094 154.671875 C 68.621094 154.671875 68.667969 154.671875 68.667969 154.671875 C 68.8125 154.621094 68.957031 154.574219 69.101562 154.527344 C 69.4375 154.429688 69.769531 154.335938 70.152344 154.289062 C 70.347656 154.289062 70.488281 154.238281 70.679688 154.238281 C 71.015625 154.238281 71.351562 154.238281 71.6875 154.238281 C 71.832031 154.238281 72.023438 154.289062 72.164062 154.289062 C 72.164062 154.289062 72.214844 154.289062 72.214844 154.289062 C 72.597656 154.335938 72.980469 154.429688 73.363281 154.574219 C 73.554688 154.621094 73.746094 154.71875 73.9375 154.765625 C 73.9375 154.765625 73.984375 154.765625 73.984375 154.765625 C 73.984375 154.765625 73.984375 154.765625 74.035156 154.765625 C 74.417969 154.957031 74.75 155.148438 75.132812 155.386719 C 75.183594 155.4375 75.421875 155.582031 75.519531 155.675781 C 75.613281 155.773438 75.710938 155.820312 75.757812 155.867188 C 76.042969 156.105469 76.285156 156.394531 76.523438 156.632812 C 76.570312 156.730469 76.621094 156.777344 76.667969 156.824219 C 76.8125 157.015625 76.90625 157.207031 77.050781 157.398438 C 77.144531 157.589844 77.242188 157.78125 77.335938 157.925781 C 77.386719 158.023438 77.386719 158.117188 77.433594 158.214844 C 77.578125 158.644531 77.671875 159.125 77.769531 159.601562 C 73.457031 162.476562 71.113281 167.265625 69.53125 172.054688 C 69.003906 173.683594 68.621094 175.308594 68.476562 176.984375 C 68.238281 176.984375 68 177.035156 67.761719 177.035156 C 67.136719 176.984375 66.707031 176.984375 66.273438 176.9375 Z M 79.636719 163.863281 C 79.636719 163.863281 79.589844 163.914062 79.492188 163.960938 C 79.589844 163.914062 79.636719 163.863281 79.636719 163.863281 Z M 82.078125 184.9375 C 81.742188 185.03125 81.933594 184.9375 82.078125 184.9375 C 81.742188 184.886719 81.3125 185.03125 80.976562 185.03125 C 80.5 185.03125 80.066406 185.03125 79.589844 184.984375 C 79.398438 184.984375 78.773438 184.839844 79.398438 184.984375 C 79.207031 184.9375 79.011719 184.9375 78.820312 184.886719 C 78.34375 184.792969 77.914062 184.695312 77.433594 184.550781 C 77.050781 184.457031 76.714844 184.3125 76.378906 184.167969 C 76.332031 184.167969 76.285156 184.121094 76.234375 184.121094 C 75.996094 184.027344 75.804688 183.882812 75.566406 183.785156 C 75.421875 183.691406 75.277344 183.59375 75.132812 183.5 C 75.132812 183.5 75.085938 183.453125 75.085938 183.453125 C 74.992188 183.308594 74.75 183.164062 74.65625 183.066406 C 74.558594 182.972656 74.464844 182.875 74.417969 182.78125 C 74.417969 182.734375 74.320312 182.636719 74.226562 182.589844 C 74.175781 182.542969 74.175781 182.492188 74.128906 182.492188 C 74.082031 182.398438 73.984375 182.300781 73.9375 182.160156 C 73.839844 181.964844 73.699219 181.773438 73.601562 181.582031 C 73.554688 181.535156 73.507812 181.441406 73.507812 181.34375 C 73.507812 181.34375 73.507812 181.296875 73.507812 181.296875 C 73.410156 181.007812 73.316406 180.769531 73.265625 180.480469 C 73.21875 180.289062 73.171875 180.050781 73.125 179.859375 C 73.074219 179.714844 73.074219 179.621094 73.074219 179.476562 C 72.980469 178.949219 73.074219 179.523438 73.074219 179.570312 C 73.027344 179.523438 73.027344 179.238281 73.027344 178.996094 C 73.027344 178.949219 73.027344 178.949219 73.027344 178.902344 C 73.027344 178.855469 73.027344 178.804688 73.027344 178.804688 C 73.027344 178.472656 73.027344 178.183594 73.027344 177.847656 C 73.027344 177.609375 73.074219 177.320312 73.074219 177.082031 C 73.074219 176.984375 73.074219 176.890625 73.125 176.792969 C 73.125 176.746094 73.125 176.652344 73.171875 176.652344 C 73.265625 176.078125 73.410156 175.5 73.554688 174.925781 C 73.839844 173.777344 74.226562 172.675781 74.65625 171.574219 C 74.75 171.335938 74.847656 171.046875 74.941406 170.808594 C 74.992188 170.710938 75.039062 170.617188 75.085938 170.519531 C 75.085938 170.472656 75.132812 170.472656 75.132812 170.425781 C 75.375 169.898438 75.613281 169.417969 75.851562 168.894531 C 76.332031 167.933594 76.90625 167.027344 77.527344 166.164062 C 77.578125 166.117188 77.816406 165.828125 77.863281 165.734375 C 78.007812 165.539062 78.152344 165.398438 78.296875 165.207031 C 78.679688 164.824219 79.011719 164.441406 79.445312 164.105469 C 79.445312 164.105469 79.492188 164.054688 79.589844 164.007812 C 79.78125 163.863281 79.972656 163.722656 80.164062 163.625 C 80.546875 163.386719 80.929688 163.148438 81.3125 162.953125 C 81.359375 162.90625 81.648438 162.8125 81.742188 162.761719 C 81.839844 162.714844 81.933594 162.667969 81.984375 162.667969 C 82.367188 162.523438 82.796875 162.429688 83.226562 162.332031 C 83.277344 162.332031 83.660156 162.285156 83.707031 162.238281 C 83.753906 162.238281 83.800781 162.238281 83.851562 162.238281 C 84.234375 162.1875 84.664062 162.1875 85.046875 162.238281 C 85.09375 162.238281 85.144531 162.238281 85.144531 162.238281 C 85.144531 162.238281 85.191406 162.238281 85.285156 162.238281 C 85.335938 162.238281 85.382812 162.238281 85.429688 162.285156 C 85.480469 162.285156 85.480469 162.285156 85.527344 162.285156 C 85.527344 162.285156 85.480469 162.285156 85.480469 162.285156 C 85.527344 162.285156 85.527344 162.285156 85.574219 162.285156 C 85.957031 162.378906 86.339844 162.476562 86.675781 162.570312 C 86.722656 162.570312 86.773438 162.621094 86.820312 162.621094 C 86.820312 162.621094 86.820312 162.621094 86.773438 162.621094 C 86.773438 162.621094 86.820312 162.621094 86.820312 162.667969 C 86.914062 162.714844 86.964844 162.714844 87.011719 162.761719 C 87.105469 162.8125 87.15625 162.8125 87.25 162.859375 C 87.441406 162.953125 87.585938 163.050781 87.777344 163.148438 C 87.871094 163.195312 87.921875 163.242188 88.015625 163.289062 C 88.351562 163.53125 88.113281 163.289062 88.015625 163.242188 C 88.257812 163.289062 88.878906 164.152344 89.023438 164.246094 C 89.023438 164.246094 89.070312 164.296875 89.070312 164.296875 C 89.117188 164.34375 89.164062 164.441406 89.214844 164.488281 C 89.359375 164.679688 89.5 164.917969 89.597656 165.15625 C 89.742188 165.398438 89.835938 165.589844 89.933594 165.828125 C 89.933594 165.875 89.980469 165.972656 90.027344 166.019531 C 90.027344 166.066406 90.027344 166.066406 90.074219 166.117188 C 90.265625 166.59375 90.410156 167.074219 90.507812 167.601562 C 90.507812 167.648438 90.507812 167.695312 90.554688 167.792969 C 90.554688 168.03125 90.601562 168.269531 90.601562 168.558594 C 90.601562 168.605469 90.601562 168.84375 90.601562 169.035156 C 89.40625 170.28125 88.304688 171.71875 87.296875 173.105469 C 85.863281 175.070312 84.710938 177.179688 83.753906 179.429688 C 83.035156 181.152344 82.558594 183.019531 82.460938 184.886719 C 82.414062 184.886719 82.316406 184.9375 82.269531 184.9375 C 82.269531 184.9375 82.316406 184.9375 82.316406 184.9375 C 82.175781 184.9375 82.125 184.9375 82.078125 184.9375 C 82.125 184.9375 82.078125 184.9375 82.078125 184.9375 Z M 90.507812 169.035156 C 90.507812 168.988281 90.507812 168.988281 90.507812 169.035156 Z M 88.207031 189.675781 C 88.257812 189.726562 88.304688 189.773438 88.304688 189.773438 C 88.304688 189.773438 88.257812 189.773438 88.207031 189.675781 Z M 94.433594 191.878906 C 94.386719 191.878906 94.050781 191.925781 93.953125 191.976562 C 93.8125 191.976562 93.667969 191.976562 93.621094 192.023438 C 93.378906 192.023438 93.140625 192.023438 92.902344 192.023438 C 92.660156 192.023438 92.421875 192.023438 92.183594 191.976562 C 92.136719 191.976562 92.136719 191.976562 92.136719 191.976562 C 91.65625 191.878906 91.226562 191.785156 90.792969 191.640625 C 90.746094 191.640625 90.699219 191.59375 90.652344 191.59375 C 90.457031 191.496094 90.265625 191.402344 90.074219 191.304688 C 89.933594 191.210938 89.789062 191.113281 89.644531 191.019531 C 89.550781 190.96875 89.453125 190.875 89.359375 190.824219 C 89.070312 190.539062 88.734375 190.25 88.449219 189.964844 C 88.398438 189.917969 88.351562 189.820312 88.257812 189.773438 C 88.207031 189.726562 88.207031 189.726562 88.207031 189.675781 C 88.113281 189.53125 87.96875 189.246094 87.921875 189.246094 C 87.824219 189.054688 87.730469 188.863281 87.632812 188.71875 C 87.632812 188.71875 87.632812 188.71875 87.632812 188.671875 C 87.585938 188.625 87.585938 188.527344 87.539062 188.480469 C 87.585938 188.574219 87.585938 188.625 87.632812 188.625 C 87.632812 188.574219 87.585938 188.527344 87.585938 188.480469 C 87.441406 188 87.347656 187.523438 87.203125 187.042969 C 87.203125 186.996094 87.203125 186.996094 87.203125 186.996094 C 87.203125 186.945312 87.203125 186.851562 87.203125 186.804688 C 87.203125 186.5625 87.15625 186.324219 87.15625 186.085938 C 87.15625 185.652344 87.203125 185.222656 87.203125 184.746094 C 87.203125 184.695312 87.25 184.410156 87.25 184.3125 C 87.296875 184.074219 87.347656 183.835938 87.394531 183.59375 C 87.488281 183.117188 87.632812 182.589844 87.824219 182.109375 C 87.921875 181.871094 87.96875 181.679688 88.066406 181.441406 C 88.113281 181.296875 88.160156 181.199219 88.207031 181.058594 C 88.207031 181.058594 88.207031 181.007812 88.257812 181.007812 C 88.304688 180.914062 88.351562 180.816406 88.351562 180.816406 C 88.398438 180.722656 88.449219 180.625 88.496094 180.53125 C 88.589844 180.289062 88.734375 180.050781 88.878906 179.765625 C 89.359375 178.855469 89.882812 177.945312 90.410156 177.035156 C 90.699219 176.601562 90.9375 176.21875 91.226562 175.835938 C 91.367188 175.644531 91.464844 175.5 91.609375 175.308594 C 91.703125 175.214844 91.75 175.070312 91.847656 174.976562 C 91.847656 174.925781 91.894531 174.925781 91.894531 174.925781 C 91.894531 174.925781 91.894531 174.925781 91.945312 174.878906 C 92.566406 174.113281 93.238281 173.300781 93.90625 172.582031 C 94.195312 172.246094 94.53125 171.910156 94.863281 171.621094 C 95.007812 171.480469 95.199219 171.335938 95.390625 171.191406 C 95.390625 171.191406 95.4375 171.144531 95.4375 171.144531 C 95.4375 171.144531 95.632812 171 95.679688 170.953125 C 96.0625 170.714844 96.445312 170.519531 96.828125 170.28125 C 96.875 170.234375 96.972656 170.234375 97.019531 170.1875 C 97.257812 170.089844 97.5 170.042969 97.691406 169.996094 C 97.738281 169.996094 97.785156 169.996094 97.832031 169.945312 C 97.929688 169.945312 98.074219 169.945312 98.121094 169.898438 C 98.457031 169.898438 98.742188 169.898438 99.078125 169.945312 C 99.078125 169.945312 99.125 169.945312 99.125 169.945312 C 99.269531 169.996094 99.460938 169.996094 99.605469 170.042969 C 99.75 170.089844 99.941406 170.136719 100.085938 170.1875 C 100.132812 170.1875 100.179688 170.234375 100.226562 170.234375 C 100.515625 170.425781 100.898438 170.570312 101.234375 170.761719 C 101.328125 170.808594 101.472656 170.90625 101.570312 171 C 101.617188 171.046875 101.710938 171.097656 101.808594 171.144531 C 102.097656 171.382812 102.382812 171.671875 102.621094 171.957031 C 102.71875 172.054688 102.8125 172.292969 102.671875 172.007812 C 102.480469 171.671875 102.71875 172.054688 102.765625 172.101562 C 102.863281 172.246094 103.003906 172.4375 103.101562 172.582031 C 103.195312 172.773438 103.292969 172.914062 103.390625 173.105469 C 103.390625 173.15625 103.4375 173.203125 103.4375 173.25 C 103.582031 173.632812 103.675781 174.015625 103.773438 174.398438 C 103.773438 174.398438 103.773438 174.449219 103.773438 174.496094 C 103.773438 174.398438 103.773438 174.304688 103.773438 174.542969 C 103.773438 174.59375 103.773438 174.59375 103.773438 174.640625 C 103.773438 174.6875 103.773438 174.734375 103.773438 174.734375 C 103.773438 174.734375 103.773438 174.734375 103.773438 174.6875 C 103.773438 174.878906 103.820312 175.070312 103.820312 175.261719 C 103.820312 175.359375 103.820312 175.40625 103.820312 175.5 C 102.382812 176.601562 101.234375 178.136719 100.277344 179.621094 C 98.886719 181.726562 97.785156 184.027344 96.925781 186.421875 C 96.347656 188.046875 95.871094 189.820312 95.871094 191.59375 C 95.679688 191.640625 95.4375 191.734375 95.246094 191.785156 C 94.863281 191.832031 94.671875 191.878906 94.433594 191.878906 Z M 95.679688 191.542969 C 95.632812 191.59375 95.582031 191.59375 95.582031 191.59375 C 95.582031 191.59375 95.632812 191.59375 95.679688 191.542969 Z M 101.234375 194.082031 C 101.28125 194.128906 101.328125 194.179688 101.378906 194.273438 C 101.28125 194.226562 101.234375 194.128906 101.234375 194.082031 Z M 110.1875 192.261719 C 110.140625 192.261719 110.140625 192.261719 110.1875 192.261719 C 109.519531 193.078125 108.847656 193.84375 108.035156 194.511719 C 107.984375 194.5625 107.890625 194.609375 107.84375 194.65625 C 107.652344 194.800781 107.460938 194.945312 107.269531 195.039062 C 107.078125 195.183594 106.882812 195.28125 106.691406 195.375 C 106.597656 195.421875 106.5 195.472656 106.40625 195.519531 C 106.40625 195.519531 106.453125 195.519531 106.453125 195.519531 C 106.453125 195.519531 106.40625 195.519531 106.40625 195.519531 C 106.261719 195.566406 106.117188 195.613281 106.117188 195.613281 C 105.878906 195.710938 105.589844 195.757812 105.351562 195.855469 C 105.207031 195.855469 105.066406 195.902344 104.96875 195.902344 C 104.875 195.902344 104.730469 195.902344 104.632812 195.902344 C 104.539062 195.902344 104.394531 195.902344 104.296875 195.902344 C 104.011719 195.855469 104.058594 195.902344 104.441406 195.949219 C 104.347656 196.046875 103.773438 195.804688 103.628906 195.757812 C 103.53125 195.710938 103.4375 195.710938 103.292969 195.664062 C 103.246094 195.664062 103.195312 195.613281 103.148438 195.613281 C 102.910156 195.519531 102.957031 195.519531 103.246094 195.664062 C 103.101562 195.710938 102.621094 195.328125 102.527344 195.28125 C 102.429688 195.230469 102.335938 195.183594 102.238281 195.089844 C 102.191406 195.039062 102.144531 195.039062 102.144531 194.992188 C 101.953125 194.800781 101.710938 194.609375 101.519531 194.417969 C 101.472656 194.371094 101.425781 194.320312 101.378906 194.273438 C 101.328125 194.226562 101.28125 194.179688 101.28125 194.128906 C 101.136719 193.890625 100.996094 193.652344 100.851562 193.410156 C 100.804688 193.316406 100.753906 193.269531 100.707031 193.171875 C 100.707031 193.125 100.660156 193.027344 100.660156 192.980469 C 100.609375 192.835938 100.609375 192.695312 100.5625 192.550781 C 100.5625 192.550781 100.5625 192.550781 100.5625 192.597656 C 100.5625 192.503906 100.515625 192.40625 100.515625 192.261719 C 100.5625 192.359375 100.5625 192.453125 100.5625 192.550781 C 100.5625 192.503906 100.5625 192.40625 100.46875 192.214844 C 100.46875 192.214844 100.46875 192.167969 100.46875 192.167969 C 100.46875 191.734375 100.46875 191.351562 100.515625 190.921875 C 100.515625 190.875 100.515625 190.824219 100.515625 190.777344 C 100.5625 190.539062 100.609375 190.347656 100.660156 190.109375 C 100.753906 189.582031 100.898438 189.101562 101.042969 188.625 C 101.234375 188.046875 101.425781 187.472656 101.617188 186.898438 C 101.664062 186.804688 101.710938 186.707031 101.710938 186.613281 C 101.710938 186.5625 101.761719 186.515625 101.761719 186.46875 C 101.902344 186.179688 102 185.941406 102.144531 185.652344 C 102.671875 184.550781 103.246094 183.5 103.867188 182.445312 C 104.15625 181.964844 104.492188 181.488281 104.824219 181.058594 C 104.875 181.007812 104.921875 180.960938 104.921875 180.914062 C 104.921875 180.914062 104.96875 180.867188 104.96875 180.867188 C 104.96875 180.816406 105.015625 180.816406 105.015625 180.769531 C 105.015625 180.769531 105.015625 180.769531 105.015625 180.816406 C 105.160156 180.625 105.351562 180.433594 105.496094 180.242188 C 105.832031 179.90625 106.117188 179.574219 106.5 179.238281 C 106.550781 179.238281 106.550781 179.1875 106.597656 179.1875 C 106.691406 179.140625 106.835938 179.046875 106.933594 178.996094 C 106.933594 178.996094 106.933594 178.996094 106.933594 178.949219 C 106.980469 178.949219 107.027344 178.902344 107.078125 178.902344 C 107.078125 178.902344 107.078125 178.902344 107.125 178.902344 C 107.21875 178.855469 107.269531 178.855469 107.363281 178.804688 C 107.316406 178.855469 107.269531 178.855469 107.269531 178.902344 C 107.363281 178.855469 107.460938 178.855469 107.554688 178.804688 C 107.601562 178.804688 107.601562 178.804688 107.652344 178.804688 C 107.652344 178.804688 107.746094 178.757812 107.84375 178.757812 C 107.890625 178.757812 107.890625 178.757812 107.9375 178.757812 C 107.984375 178.757812 108.035156 178.757812 108.082031 178.710938 C 108.035156 178.710938 108.035156 178.710938 108.035156 178.757812 C 108.082031 178.757812 108.175781 178.757812 108.226562 178.757812 C 108.464844 178.757812 108.753906 178.804688 109.039062 178.804688 C 108.945312 178.757812 108.992188 178.710938 109.183594 178.757812 C 109.230469 178.757812 109.277344 178.757812 109.277344 178.757812 C 109.277344 178.757812 109.328125 178.757812 109.328125 178.757812 C 109.328125 178.757812 109.277344 178.757812 109.277344 178.757812 C 109.328125 178.757812 109.328125 178.757812 109.375 178.757812 C 109.613281 178.804688 109.855469 178.855469 110.09375 178.949219 C 110.285156 178.996094 110.476562 179.09375 110.667969 179.140625 C 110.714844 179.140625 110.714844 179.1875 110.761719 179.1875 C 111.148438 179.378906 111.53125 179.621094 111.914062 179.859375 C 111.960938 179.90625 112.007812 179.957031 112.054688 180.003906 C 112.199219 180.148438 112.390625 180.289062 112.535156 180.433594 C 112.582031 180.480469 112.632812 180.578125 112.726562 180.625 C 112.726562 180.625 112.824219 180.722656 112.871094 180.769531 C 112.917969 180.816406 112.917969 180.816406 112.964844 180.867188 C 112.917969 180.816406 112.917969 180.816406 112.917969 180.816406 C 112.964844 180.914062 113.0625 181.058594 113.109375 181.152344 C 113.207031 181.296875 113.300781 181.488281 113.398438 181.679688 C 113.445312 181.773438 113.492188 181.871094 113.492188 181.917969 C 113.589844 182.160156 113.636719 182.351562 113.683594 182.589844 C 113.683594 182.683594 113.734375 182.78125 113.734375 182.875 C 113.734375 182.925781 113.734375 182.925781 113.734375 182.972656 C 113.78125 183.402344 113.78125 183.835938 113.734375 184.265625 C 113.734375 184.3125 113.734375 184.3125 113.734375 184.359375 C 113.683594 184.550781 113.683594 184.746094 113.636719 184.9375 C 113.445312 185.796875 113.15625 186.707031 112.824219 187.523438 C 112.824219 187.570312 112.773438 187.617188 112.773438 187.664062 C 112.773438 187.714844 112.773438 187.714844 112.726562 187.761719 C 112.726562 187.808594 112.679688 187.808594 112.679688 187.855469 C 112.679688 187.90625 112.679688 187.90625 112.632812 187.953125 C 112.632812 187.953125 112.632812 187.90625 112.632812 187.90625 C 112.535156 188.097656 112.488281 188.289062 112.390625 188.429688 C 112.152344 188.957031 111.914062 189.4375 111.625 189.917969 C 111.386719 190.347656 111.097656 190.824219 110.8125 191.257812 C 110.667969 191.449219 110.523438 191.6875 110.378906 191.878906 C 110.332031 192.023438 110.238281 192.167969 110.1875 192.261719 Z M 146.296875 185.75 C 146.296875 185.75 146.25 185.796875 146.25 185.796875 C 146.34375 185.703125 146.632812 185.511719 146.296875 185.75 Z M 168.757812 164.152344 C 168.421875 164.296875 168.757812 164.105469 168.898438 164.054688 C 168.851562 164.105469 168.804688 164.152344 168.757812 164.152344 Z M 171.246094 162.238281 C 171.34375 162.140625 171.4375 162.046875 171.246094 162.238281 Z M 171.152344 162.429688 C 171.152344 162.378906 171.199219 162.378906 171.246094 162.332031 C 171.199219 162.332031 171.152344 162.378906 171.152344 162.429688 Z M 172.777344 155.246094 C 172.730469 155.054688 172.730469 154.863281 172.777344 155.195312 C 172.777344 155.195312 172.777344 155.195312 172.777344 155.246094 Z M 172.539062 154.046875 C 172.636719 154.429688 172.683594 154.863281 172.777344 155.246094 C 172.777344 155.339844 172.777344 155.386719 172.777344 155.484375 C 172.777344 155.722656 172.828125 155.964844 172.828125 156.203125 C 172.828125 156.679688 172.828125 157.160156 172.828125 157.640625 C 172.828125 157.878906 172.777344 158.070312 172.777344 158.308594 C 172.777344 158.40625 172.730469 158.453125 172.730469 158.550781 C 172.636719 159.027344 172.539062 159.507812 172.394531 159.9375 C 172.347656 160.175781 172.253906 160.367188 172.15625 160.609375 C 172.15625 160.609375 172.15625 160.65625 172.15625 160.65625 C 172.109375 160.703125 172.109375 160.800781 172.109375 160.800781 C 171.917969 161.230469 171.675781 161.660156 171.390625 162.046875 C 171.34375 162.09375 171.292969 162.1875 171.246094 162.238281 C 171.054688 162.429688 170.910156 162.621094 170.71875 162.8125 C 170.578125 162.953125 170.382812 163.097656 170.242188 163.242188 C 170.289062 163.242188 170.289062 163.195312 170.335938 163.195312 C 170.289062 163.195312 170.289062 163.242188 170.242188 163.242188 C 170.242188 163.242188 170.191406 163.289062 170.191406 163.289062 C 170 163.480469 170.050781 163.386719 170.191406 163.289062 C 170.097656 163.339844 170 163.433594 169.953125 163.480469 C 169.761719 163.625 169.523438 163.769531 169.28125 163.863281 C 169.1875 163.914062 169.042969 164.007812 168.949219 164.054688 C 168.757812 164.054688 168.375 164.296875 168.183594 164.34375 C 167.894531 164.441406 167.558594 164.535156 167.273438 164.582031 C 167.128906 164.632812 166.984375 164.632812 166.839844 164.679688 C 166.792969 164.679688 166.746094 164.679688 166.695312 164.726562 C 166.601562 164.726562 166.457031 164.773438 166.410156 164.773438 C 166.21875 164.773438 166.027344 164.824219 165.835938 164.824219 C 165.070312 164.871094 164.304688 164.824219 163.535156 164.773438 C 163.34375 164.773438 163.152344 164.726562 162.960938 164.726562 C 162.816406 164.726562 162.722656 164.679688 162.578125 164.679688 C 162.578125 164.679688 162.53125 164.679688 162.484375 164.679688 C 162.386719 164.679688 162.292969 164.632812 162.242188 164.632812 C 162.148438 164.632812 162.050781 164.582031 161.910156 164.582031 C 161.621094 164.535156 161.332031 164.488281 161.046875 164.441406 C 158.699219 164.007812 156.402344 163.433594 154.199219 162.667969 C 153.671875 162.476562 153.097656 162.285156 152.570312 162.09375 C 152.28125 161.996094 152.042969 161.902344 151.757812 161.757812 C 151.757812 161.757812 151.707031 161.710938 151.660156 161.710938 C 151.660156 161.710938 151.707031 161.710938 151.757812 161.757812 C 151.613281 161.710938 151.46875 161.660156 151.371094 161.566406 C 150.273438 161.085938 149.171875 160.511719 148.070312 159.9375 C 146.96875 159.363281 145.386719 159.652344 144.8125 160.800781 C 144.238281 161.902344 144.476562 163.433594 145.675781 164.054688 C 149.695312 166.210938 154.054688 167.839844 158.554688 168.796875 C 160.039062 169.085938 161.574219 169.371094 163.105469 169.515625 C 163.058594 169.851562 162.960938 170.1875 162.867188 170.472656 C 162.722656 171.046875 162.53125 171.621094 162.339844 172.148438 C 162.292969 172.199219 162.195312 172.4375 162.195312 172.53125 C 162.195312 172.53125 162.195312 172.53125 162.195312 172.582031 C 162.050781 172.867188 161.910156 173.15625 161.71875 173.441406 C 161.574219 173.683594 161.429688 173.921875 161.285156 174.160156 C 161.191406 174.304688 161.09375 174.398438 161.046875 174.542969 C 160.566406 175.070312 160.136719 175.550781 159.609375 175.980469 C 159.5625 176.027344 159.5625 176.027344 159.5625 176.027344 C 159.464844 176.078125 159.371094 176.125 159.324219 176.171875 C 159.035156 176.363281 158.746094 176.554688 158.460938 176.699219 C 158.171875 176.84375 157.839844 177.035156 157.550781 177.179688 C 157.503906 177.179688 157.453125 177.226562 157.40625 177.226562 C 157.261719 177.273438 157.070312 177.320312 156.929688 177.371094 C 156.738281 177.417969 156.59375 177.464844 156.402344 177.511719 C 156.304688 177.511719 156.257812 177.5625 156.160156 177.5625 C 155.636719 177.609375 155.109375 177.609375 154.582031 177.609375 C 154.054688 177.609375 153.574219 177.5625 153.050781 177.511719 C 152.90625 177.511719 152.761719 177.464844 152.617188 177.464844 C 152.617188 177.464844 152.617188 177.464844 152.664062 177.464844 C 152.664062 177.464844 152.617188 177.464844 152.617188 177.464844 C 152.425781 177.417969 152.234375 177.371094 152.042969 177.371094 C 151.898438 177.320312 151.757812 177.320312 151.613281 177.273438 C 149.027344 176.792969 146.535156 176.027344 144.046875 175.214844 C 141.699219 174.398438 139.351562 173.539062 137.054688 172.582031 C 135.90625 172.101562 134.371094 173.105469 134.085938 174.257812 C 133.75 175.644531 134.515625 176.699219 135.761719 177.226562 C 140.121094 178.996094 144.574219 180.722656 149.171875 181.679688 C 149.074219 181.964844 148.980469 182.253906 148.882812 182.492188 C 148.835938 182.589844 148.785156 182.683594 148.738281 182.828125 C 148.644531 183.019531 148.546875 183.210938 148.453125 183.355469 C 148.261719 183.691406 148.070312 184.027344 147.828125 184.3125 C 147.828125 184.3125 147.828125 184.3125 147.78125 184.359375 C 147.78125 184.359375 147.78125 184.359375 147.78125 184.410156 C 147.734375 184.503906 147.6875 184.503906 147.6875 184.503906 C 147.542969 184.695312 147.398438 184.839844 147.207031 185.03125 C 147.0625 185.175781 146.917969 185.320312 146.777344 185.460938 C 146.679688 185.511719 146.488281 185.652344 146.394531 185.75 C 146.34375 185.796875 146.296875 185.796875 146.25 185.84375 C 146.058594 185.941406 145.914062 186.085938 145.722656 186.179688 C 145.578125 186.277344 145.386719 186.324219 145.242188 186.421875 C 145.292969 186.371094 145.003906 186.515625 144.90625 186.5625 C 144.429688 186.753906 143.902344 186.898438 143.375 186.996094 C 143.136719 187.042969 142.898438 187.089844 142.65625 187.136719 C 143.136719 187.042969 142.5625 187.136719 142.371094 187.1875 C 141.890625 187.234375 141.414062 187.234375 140.933594 187.234375 C 140.453125 187.234375 139.976562 187.1875 139.496094 187.136719 C 139.402344 187.136719 139.304688 187.089844 139.210938 187.089844 C 138.921875 187.042969 138.632812 186.996094 138.394531 186.945312 C 137.4375 186.753906 136.480469 186.46875 135.523438 186.132812 C 134.996094 185.941406 134.421875 185.75 133.894531 185.558594 C 133.605469 185.460938 133.367188 185.367188 133.078125 185.222656 C 133.078125 185.222656 133.03125 185.222656 132.984375 185.175781 C 132.886719 185.128906 132.792969 185.078125 132.746094 185.078125 C 131.644531 184.601562 130.589844 184.121094 129.535156 183.59375 C 128.386719 183.066406 126.902344 183.257812 126.28125 184.457031 C 125.703125 185.511719 125.945312 187.136719 127.140625 187.714844 C 129.25 188.71875 131.402344 189.722656 133.605469 190.492188 C 133.558594 190.585938 133.460938 190.683594 133.414062 190.777344 C 133.414062 190.777344 133.367188 190.824219 133.367188 190.824219 C 133.128906 191.113281 132.839844 191.402344 132.554688 191.640625 C 132.410156 191.785156 132.265625 191.878906 132.121094 192.023438 C 132.121094 192.023438 132.074219 192.070312 132.027344 192.070312 C 131.691406 192.308594 131.355469 192.503906 131.019531 192.695312 C 130.734375 192.835938 130.445312 192.980469 130.160156 193.125 C 130.109375 193.125 130.0625 193.171875 130.015625 193.171875 C 129.824219 193.269531 129.582031 193.316406 129.390625 193.410156 C 129.058594 193.507812 128.722656 193.601562 128.386719 193.699219 C 128.242188 193.746094 128.050781 193.796875 127.90625 193.796875 C 127.859375 193.796875 127.621094 193.84375 127.476562 193.84375 C 127.378906 193.84375 127.285156 193.84375 127.285156 193.84375 C 127.09375 193.84375 126.902344 193.890625 126.757812 193.890625 C 126.375 193.890625 125.992188 193.890625 125.609375 193.890625 C 125.179688 193.890625 124.699219 193.890625 124.21875 193.796875 C 124.316406 193.796875 124.601562 193.84375 124.363281 193.796875 C 124.21875 193.746094 124.125 193.746094 123.980469 193.746094 C 123.742188 193.699219 123.453125 193.652344 123.214844 193.601562 C 122.207031 193.410156 121.15625 193.125 120.148438 192.789062 C 119.097656 192.453125 117.996094 192.070312 116.988281 191.640625 C 116.84375 191.59375 116.652344 191.496094 116.511719 191.449219 C 117.230469 190.058594 117.851562 188.574219 118.234375 187.089844 C 118.855469 184.839844 119.046875 182.351562 118.136719 180.097656 C 116.988281 177.371094 114.835938 175.40625 112.054688 174.398438 C 110.957031 174.015625 109.710938 173.777344 108.511719 173.824219 C 108.371094 172.820312 108.082031 171.8125 107.652344 170.808594 C 106.835938 169.085938 105.449219 167.648438 103.867188 166.59375 C 102.289062 165.589844 100.371094 165.015625 98.503906 165.015625 C 97.308594 165.015625 96.15625 165.300781 95.105469 165.734375 C 94.386719 162.761719 92.519531 160.082031 89.882812 158.644531 C 87.488281 157.351562 84.761719 157.015625 82.175781 157.542969 C 81.359375 154.429688 79.398438 151.75 76.378906 150.359375 C 73.027344 148.828125 68.859375 148.683594 65.652344 150.695312 C 62.875 152.417969 60.578125 154.910156 58.851562 157.734375 C 56.648438 156.441406 54.496094 154.957031 52.4375 153.378906 C 52.386719 153.328125 52.386719 153.328125 52.339844 153.328125 C 52.339844 153.328125 52.292969 153.328125 52.292969 153.28125 C 52.101562 153.136719 51.859375 152.945312 51.667969 152.800781 C 51.335938 152.515625 51 152.277344 50.664062 151.988281 C 49.992188 151.414062 49.324219 150.886719 48.699219 150.3125 C 48.078125 149.738281 47.457031 149.210938 46.878906 148.636719 C 48.125 147.246094 49.132812 145.667969 49.945312 143.992188 C 51.191406 141.453125 52.195312 138.820312 53.296875 136.234375 C 54.445312 133.597656 55.597656 130.964844 56.699219 128.332031 C 59.140625 122.632812 61.535156 116.933594 63.738281 111.1875 C 64.789062 108.507812 65.941406 105.824219 66.707031 103.046875 C 66.753906 102.902344 66.753906 102.808594 66.800781 102.664062 C 69.4375 101.898438 72.070312 101.226562 74.703125 100.699219 C 76.285156 100.363281 77.914062 100.078125 79.492188 99.789062 C 80.257812 99.648438 80.976562 99.550781 81.742188 99.453125 C 82.078125 99.40625 82.460938 99.359375 82.796875 99.3125 C 82.890625 99.3125 83.085938 99.261719 83.132812 99.261719 C 83.417969 99.214844 83.660156 99.214844 83.945312 99.167969 C 90.507812 98.355469 97.117188 98.066406 103.722656 98.355469 C 104.394531 98.402344 105.113281 98.402344 105.78125 98.449219 C 102.335938 100.460938 99.078125 102.855469 96.109375 105.585938 C 91.558594 109.703125 87.585938 114.492188 84.519531 119.808594 C 82.988281 122.394531 81.742188 125.125 80.738281 127.996094 C 79.828125 130.582031 79.011719 133.40625 79.109375 136.183594 C 79.15625 138.628906 79.921875 141.023438 81.597656 142.792969 C 82.941406 144.183594 84.761719 145.042969 86.628906 145.332031 C 88.589844 145.621094 90.554688 145.570312 92.46875 144.949219 C 95.054688 144.136719 97.308594 142.554688 99.269531 140.734375 C 101.234375 138.914062 102.863281 136.808594 104.585938 134.796875 C 105.449219 133.789062 106.308594 132.785156 107.269531 131.828125 C 107.699219 131.398438 108.128906 130.964844 108.609375 130.582031 C 108.847656 130.390625 109.085938 130.152344 109.375 129.960938 C 109.375 129.960938 109.375 129.960938 109.421875 129.910156 C 109.613281 129.769531 109.757812 129.671875 109.949219 129.527344 C 110.476562 129.144531 111.050781 128.808594 111.671875 128.523438 C 111.960938 128.378906 112.296875 128.234375 112.582031 128.09375 C 112.679688 128.042969 112.824219 127.996094 112.871094 127.996094 C 113.0625 127.949219 113.253906 127.851562 113.398438 127.804688 C 114.117188 127.566406 114.882812 127.375 115.601562 127.183594 C 115.9375 127.132812 116.222656 127.039062 116.558594 126.992188 C 116.75 126.941406 116.894531 126.941406 117.085938 126.894531 C 117.230469 126.894531 117.421875 126.847656 117.46875 126.847656 C 119.046875 126.703125 120.628906 126.703125 122.207031 126.75 C 122.925781 126.800781 123.695312 126.847656 124.410156 126.941406 C 124.699219 126.992188 124.9375 126.992188 125.226562 127.039062 C 129.152344 135.277344 136.046875 142.074219 143.566406 147.054688 C 147.160156 149.402344 151.085938 151.367188 155.25 152.5625 C 159.707031 153.808594 164.398438 154.289062 168.996094 154.09375 C 170.191406 154.046875 171.390625 153.953125 172.539062 153.808594 C 172.492188 153.902344 172.539062 153.953125 172.539062 154.046875 Z M 206.492188 140.832031 C 206.539062 140.78125 206.589844 140.6875 206.636719 140.6875 C 206.589844 140.734375 206.539062 140.832031 206.492188 140.832031 Z M 207.59375 138.820312 C 207.546875 138.964844 207.5 139.203125 207.449219 139.347656 C 207.449219 139.347656 207.402344 139.394531 207.355469 139.441406 C 207.257812 139.585938 207.210938 139.730469 207.113281 139.871094 C 206.972656 140.113281 206.828125 140.351562 206.683594 140.542969 C 206.683594 140.542969 206.636719 140.589844 206.636719 140.589844 C 206.636719 140.589844 206.589844 140.640625 206.589844 140.6875 C 206.539062 140.78125 206.445312 140.832031 206.398438 140.925781 C 206.011719 141.355469 205.628906 141.691406 205.199219 142.074219 C 205.105469 142.125 205.007812 142.21875 204.960938 142.265625 C 204.960938 142.265625 204.914062 142.265625 204.914062 142.316406 C 204.671875 142.507812 204.386719 142.699219 204.144531 142.84375 C 203.140625 143.464844 202.085938 144.039062 201.03125 144.566406 C 200.507812 144.804688 199.980469 145.042969 199.453125 145.285156 C 199.164062 145.429688 198.878906 145.523438 198.589844 145.667969 C 198.542969 145.667969 198.496094 145.714844 198.496094 145.714844 C 198.496094 145.714844 198.445312 145.714844 198.445312 145.761719 C 198.253906 145.859375 198.0625 145.90625 197.871094 146.003906 C 196.53125 146.53125 195.191406 147.054688 193.800781 147.4375 C 193.132812 147.628906 192.507812 147.773438 191.839844 147.917969 C 191.695312 147.964844 191.597656 147.964844 191.457031 147.964844 C 191.359375 147.964844 190.738281 148.15625 191.3125 148.015625 C 190.976562 148.109375 190.59375 148.109375 190.257812 148.109375 C 189.636719 148.15625 188.964844 148.15625 188.34375 148.0625 C 188.292969 148.0625 188.292969 148.0625 188.246094 148.0625 C 188.101562 148.0625 187.960938 148.015625 187.863281 147.964844 C 187.527344 147.917969 187.195312 147.824219 186.859375 147.726562 C 186.667969 147.679688 186.476562 147.582031 186.332031 147.535156 C 186.332031 147.535156 186.332031 147.535156 186.285156 147.535156 C 185.996094 147.390625 185.757812 147.296875 185.46875 147.105469 C 185.230469 146.960938 184.992188 146.769531 184.703125 146.625 C 184.703125 146.625 184.65625 146.625 184.65625 146.578125 C 184.65625 146.578125 184.65625 146.578125 184.609375 146.53125 C 184.464844 146.433594 184.320312 146.289062 184.222656 146.195312 C 183.792969 145.8125 183.410156 145.378906 183.027344 144.902344 C 183.027344 144.902344 183.027344 144.902344 182.980469 144.851562 C 182.980469 144.851562 182.980469 144.804688 182.929688 144.804688 C 182.882812 144.710938 182.789062 144.613281 182.738281 144.519531 C 182.546875 144.230469 182.355469 143.941406 182.164062 143.609375 C 181.496094 142.507812 180.96875 141.355469 180.441406 140.207031 C 178.238281 135.277344 176.179688 130.296875 174.023438 125.363281 C 173.785156 124.738281 173.496094 124.164062 173.257812 123.542969 C 173.113281 123.253906 173.019531 122.921875 172.875 122.632812 C 172.828125 122.488281 172.777344 122.394531 172.730469 122.25 C 172.683594 122.152344 172.636719 122.058594 172.636719 122.011719 C 172.636719 121.960938 172.636719 121.960938 172.585938 121.914062 C 172.0625 120.667969 171.535156 119.425781 171.007812 118.132812 C 169.859375 115.304688 168.707031 112.527344 167.65625 109.65625 C 166.695312 107.164062 165.597656 104.628906 164.878906 102.039062 C 164.6875 101.417969 164.589844 100.796875 164.445312 100.171875 C 164.445312 100.03125 164.398438 99.886719 164.398438 99.695312 C 164.398438 99.359375 164.398438 99.023438 164.398438 98.6875 C 164.398438 98.640625 164.398438 98.59375 164.398438 98.59375 C 164.398438 98.496094 164.445312 98.402344 164.445312 98.355469 C 164.496094 98.113281 164.542969 97.875 164.636719 97.585938 C 164.636719 97.539062 164.734375 97.300781 164.78125 97.203125 C 164.878906 96.964844 165.019531 96.726562 165.164062 96.535156 C 165.164062 96.484375 165.355469 96.246094 165.453125 96.054688 C 165.453125 96.054688 165.5 96.007812 165.546875 95.960938 C 165.644531 95.863281 165.738281 95.769531 165.789062 95.671875 C 166.171875 95.242188 166.601562 94.808594 167.082031 94.476562 C 167.128906 94.425781 167.222656 94.332031 167.320312 94.28125 C 167.367188 94.28125 167.367188 94.234375 167.367188 94.234375 C 167.605469 94.042969 167.847656 93.898438 168.085938 93.757812 C 168.613281 93.375 169.1875 93.039062 169.761719 92.75 C 170.863281 92.128906 172.011719 91.601562 173.113281 91.074219 C 173.6875 90.789062 174.3125 90.546875 174.886719 90.261719 C 175.125 90.164062 175.414062 90.019531 175.652344 89.925781 C 175.699219 89.878906 175.988281 89.78125 176.035156 89.78125 C 176.226562 89.6875 176.417969 89.636719 176.609375 89.542969 C 177.949219 89.015625 179.339844 88.535156 180.730469 88.203125 C 181.0625 88.105469 181.351562 88.058594 181.6875 88.007812 C 181.828125 87.960938 182.023438 87.960938 182.164062 87.914062 C 182.164062 87.914062 182.164062 87.914062 182.214844 87.914062 C 182.882812 87.867188 183.554688 87.816406 184.273438 87.867188 C 184.414062 87.867188 184.511719 87.867188 184.65625 87.914062 C 184.65625 87.914062 184.703125 87.914062 184.703125 87.914062 C 184.992188 87.960938 185.277344 88.058594 185.566406 88.105469 C 185.660156 88.152344 185.804688 88.152344 185.902344 88.203125 C 185.949219 88.203125 185.996094 88.203125 186.042969 88.25 C 186.332031 88.34375 186.667969 88.585938 186.953125 88.726562 C 187.097656 88.824219 187.242188 88.917969 187.335938 88.96875 C 187.335938 88.96875 187.386719 88.96875 187.386719 89.015625 C 187.625 89.207031 187.863281 89.445312 188.054688 89.6875 C 188.152344 89.78125 188.246094 89.925781 188.390625 90.019531 C 188.390625 90.019531 188.4375 90.070312 188.4375 90.070312 C 188.628906 90.355469 188.820312 90.644531 189.011719 90.929688 C 189.347656 91.457031 189.636719 92.03125 189.921875 92.605469 C 190.066406 92.894531 190.210938 93.183594 190.304688 93.46875 C 190.402344 93.660156 190.449219 93.804688 190.546875 93.996094 C 190.304688 93.421875 190.59375 94.140625 190.640625 94.1875 C 191.3125 95.71875 191.933594 97.253906 192.605469 98.832031 C 193.898438 101.898438 195.144531 104.914062 196.4375 107.980469 C 198.972656 114.0625 201.558594 120.191406 204.097656 126.273438 C 204.71875 127.757812 205.34375 129.289062 206.011719 130.773438 C 206.636719 132.210938 207.210938 133.648438 207.59375 135.179688 C 207.640625 135.46875 207.738281 135.753906 207.785156 136.042969 C 207.785156 135.945312 207.832031 136.425781 207.832031 136.472656 C 207.832031 136.617188 207.832031 136.761719 207.882812 136.902344 C 207.882812 137.285156 207.882812 137.621094 207.832031 137.957031 C 207.832031 138.003906 207.832031 138.003906 207.832031 138.003906 C 207.832031 138.003906 207.832031 138.054688 207.832031 138.054688 C 207.691406 138.339844 207.640625 138.578125 207.59375 138.820312 Z M 207.59375 138.820312 " fill-opacity="1" fill-rule="nonzero"/></g><path fill="#4745d2" d="M 62.011719 97.492188 C 61.964844 97.445312 61.964844 97.347656 61.917969 97.300781 C 61.917969 97.347656 61.964844 97.445312 62.011719 97.492188 Z M 62.011719 97.492188 " fill-opacity="1" fill-rule="nonzero"/><path fill="#4745d2" d="M 85.09375 139.585938 C 85.191406 139.679688 85.238281 139.730469 85.335938 139.777344 C 85.335938 139.777344 85.382812 139.777344 85.382812 139.824219 C 85.191406 139.632812 85.09375 139.585938 85.09375 139.585938 Z M 85.09375 139.585938 " fill-opacity="1" fill-rule="nonzero"/><path fill="#4745d2" d="M 83.800781 136.902344 C 83.800781 136.953125 83.800781 136.953125 83.800781 136.953125 C 83.800781 136.953125 83.800781 137 83.800781 137 C 83.851562 137.191406 83.945312 137.335938 83.800781 136.902344 Z M 83.800781 136.902344 " fill-opacity="1" fill-rule="nonzero"/><path fill="#4745d2" d="M 84.1875 138.195312 C 84.234375 138.292969 84.234375 138.339844 84.234375 138.4375 C 84.234375 138.339844 84.1875 138.246094 84.1875 138.195312 Z M 84.1875 138.195312 " fill-opacity="1" fill-rule="nonzero"/><path fill="#4745d2" d="M 89.597656 140.6875 C 89.644531 140.6875 89.644531 140.6875 89.691406 140.6875 C 89.742188 140.6875 89.742188 140.6875 89.789062 140.6875 C 89.835938 140.6875 89.882812 140.6875 89.933594 140.640625 C 90.027344 140.589844 89.933594 140.589844 89.597656 140.6875 Z M 89.597656 140.6875 " fill-opacity="1" fill-rule="nonzero"/><path fill="#4745d2" d="M 151.613281 161.660156 C 151.421875 161.566406 151.515625 161.613281 151.613281 161.660156 Z M 151.613281 161.660156 " fill-opacity="1" fill-rule="nonzero"/><path fill="#4745d2" d="M 170.191406 163.289062 C 170.242188 163.289062 170.242188 163.289062 170.191406 163.289062 C 170.191406 163.339844 170.191406 163.289062 170.191406 163.289062 Z M 170.191406 163.289062 " fill-opacity="1" fill-rule="nonzero"/><path fill="#4745d2" d="M 152.425781 177.464844 C 152.617188 177.511719 153.097656 177.511719 152.425781 177.464844 Z M 152.425781 177.464844 " fill-opacity="1" fill-rule="nonzero"/><path fill="#4745d2" d="M 147.492188 184.550781 C 147.492188 184.503906 147.542969 184.457031 147.589844 184.410156 C 147.589844 184.410156 147.589844 184.410156 147.589844 184.359375 C 147.542969 184.359375 147.445312 184.550781 147.492188 184.550781 Z M 147.492188 184.550781 " fill-opacity="1" fill-rule="nonzero"/><path fill="#4745d2" d="M 108.035156 178.710938 C 108.035156 178.710938 107.984375 178.710938 107.984375 178.710938 C 107.890625 178.710938 107.792969 178.757812 107.699219 178.757812 C 107.652344 178.804688 107.746094 178.804688 108.035156 178.710938 Z M 108.035156 178.710938 " fill-opacity="1" fill-rule="nonzero"/><path fill="#4745d2" d="M 112.679688 187.90625 C 112.726562 187.90625 112.726562 187.90625 112.679688 187.90625 C 112.726562 187.808594 112.726562 187.714844 112.773438 187.664062 C 112.824219 187.570312 112.773438 187.570312 112.679688 187.90625 Z M 112.679688 187.90625 " fill-opacity="1" fill-rule="nonzero"/><path fill="#4745d2" d="M 112.917969 180.867188 C 112.917969 180.867188 112.917969 180.816406 112.917969 180.867188 C 112.824219 180.769531 112.773438 180.722656 112.726562 180.671875 C 112.726562 180.625 112.726562 180.671875 112.917969 180.867188 Z M 112.917969 180.867188 " fill-opacity="1" fill-rule="nonzero"/><path fill="#4745d2" d="M 107.171875 178.949219 C 107.171875 178.949219 107.125 178.949219 107.125 178.949219 C 107.078125 178.996094 107.027344 178.996094 106.980469 179.046875 C 107.027344 179.046875 107.125 178.996094 107.269531 178.902344 C 107.21875 178.902344 107.21875 178.902344 107.171875 178.949219 Z M 107.171875 178.949219 " fill-opacity="1" fill-rule="nonzero"/><path fill="#4745d2" d="M 106.070312 195.664062 C 106.167969 195.613281 106.261719 195.613281 106.359375 195.566406 C 106.117188 195.613281 106.070312 195.664062 106.070312 195.664062 Z M 106.070312 195.664062 " fill-opacity="1" fill-rule="nonzero"/><path fill="#4745d2" d="M 109.328125 178.757812 C 109.328125 178.757812 109.277344 178.757812 109.328125 178.757812 C 109.230469 178.757812 109.136719 178.757812 109.039062 178.757812 C 109.085938 178.804688 109.183594 178.804688 109.328125 178.757812 Z M 109.328125 178.757812 " fill-opacity="1" fill-rule="nonzero"/><path fill="#4745d2" d="M 105.066406 180.867188 C 105.066406 180.914062 105.066406 180.914062 105.066406 180.867188 C 105.015625 180.914062 105.015625 180.914062 105.066406 180.867188 C 105.015625 180.914062 105.015625 180.960938 104.96875 180.960938 C 104.875 181.152344 104.777344 181.296875 105.066406 180.867188 Z M 105.066406 180.867188 " fill-opacity="1" fill-rule="nonzero"/><path fill="#4745d2" d="M 86.964844 162.714844 C 86.914062 162.667969 86.820312 162.667969 86.773438 162.621094 C 86.773438 162.621094 86.773438 162.621094 86.722656 162.621094 C 87.011719 162.761719 87.058594 162.761719 86.964844 162.714844 Z M 86.964844 162.714844 " fill-opacity="1" fill-rule="nonzero"/><path fill="#4745d2" d="M 85.382812 162.238281 C 85.238281 162.238281 85.144531 162.238281 85.046875 162.1875 C 85.046875 162.238281 85.144531 162.238281 85.382812 162.238281 Z M 85.382812 162.238281 " fill-opacity="1" fill-rule="nonzero"/><path fill="#4745d2" d="M 65.796875 176.890625 C 65.890625 176.890625 65.988281 176.9375 66.082031 176.9375 C 65.890625 176.84375 65.796875 176.84375 65.796875 176.890625 Z M 65.796875 176.890625 " fill-opacity="1" fill-rule="nonzero"/><path fill="#4745d2" d="M 67.042969 155.53125 C 66.992188 155.53125 66.992188 155.582031 66.992188 155.582031 C 66.992188 155.582031 66.992188 155.582031 66.945312 155.628906 C 66.945312 155.628906 66.898438 155.675781 66.898438 155.675781 C 66.945312 155.628906 67.042969 155.53125 67.042969 155.53125 Z M 67.042969 155.53125 " fill-opacity="1" fill-rule="nonzero"/><path fill="#4745d2" d="M 61.199219 174.351562 C 61.152344 174.257812 61.101562 174.207031 61.101562 174.160156 C 61.101562 174.207031 61.152344 174.257812 61.199219 174.351562 Z M 61.199219 174.351562 " fill-opacity="1" fill-rule="nonzero"/><path fill="#4745d2" d="M 191.933594 141.550781 C 191.597656 141.691406 191.265625 141.742188 190.929688 141.835938 C 190.546875 141.882812 190.164062 141.882812 189.78125 141.835938 C 189.539062 141.789062 189.300781 141.742188 189.109375 141.691406 C 189.0625 141.691406 189.011719 141.644531 188.917969 141.644531 C 188.871094 141.644531 188.820312 141.597656 188.773438 141.597656 C 188.773438 141.597656 188.773438 141.597656 188.726562 141.597656 C 188.726562 141.597656 188.679688 141.597656 188.679688 141.597656 C 188.679688 141.597656 188.726562 141.597656 188.726562 141.597656 C 188.679688 141.550781 188.628906 141.550781 188.582031 141.5 C 188.535156 141.453125 188.101562 141.214844 187.863281 141.070312 C 187.816406 141.023438 187.769531 140.972656 187.671875 140.925781 C 187.527344 140.78125 187.433594 140.6875 187.289062 140.542969 C 186.667969 139.824219 185.375 139.871094 184.75 140.542969 C 184.082031 141.308594 184.082031 142.316406 184.75 143.082031 C 186.667969 145.285156 190.113281 146.144531 192.890625 145.09375 C 193.324219 144.902344 193.707031 144.710938 193.945312 144.277344 C 194.183594 143.894531 194.28125 143.320312 194.136719 142.890625 C 193.898438 141.933594 192.890625 141.164062 191.933594 141.550781 Z M 187.863281 140.972656 C 187.816406 140.925781 187.769531 140.925781 187.769531 140.925781 C 187.769531 140.925781 187.816406 140.972656 187.863281 140.972656 Z M 187.863281 140.972656 " fill-opacity="1" fill-rule="nonzero"/><path fill="#4745d2" d="M 188.917969 141.597656 C 188.964844 141.597656 188.917969 141.597656 188.726562 141.5 C 188.820312 141.550781 188.871094 141.550781 188.917969 141.597656 Z M 188.917969 141.597656 " fill-opacity="1" fill-rule="nonzero"/><path fill="#4745d2" d="M 154.867188 143.226562 C 155.347656 143.320312 155.828125 143.273438 156.257812 143.035156 C 156.640625 142.792969 156.976562 142.410156 157.070312 141.980469 C 157.167969 141.5 157.167969 141.023438 156.878906 140.589844 C 156.640625 140.207031 156.257812 139.871094 155.828125 139.777344 C 155.394531 139.679688 155.011719 139.539062 154.582031 139.394531 C 153.910156 139.105469 153.289062 138.722656 152.714844 138.292969 C 152.664062 138.246094 152.570312 138.195312 152.523438 138.148438 C 152.140625 137.8125 151.757812 137.621094 151.230469 137.621094 C 150.796875 137.621094 150.273438 137.8125 149.9375 138.148438 C 149.601562 138.484375 149.410156 138.964844 149.410156 139.441406 C 149.410156 139.871094 149.554688 140.398438 149.9375 140.734375 C 151.421875 141.882812 153.050781 142.792969 154.867188 143.226562 Z M 154.867188 143.226562 " fill-opacity="1" fill-rule="nonzero"/><path fill="#4745d2" d="M 19.726562 8.992188 C 19.777344 9.136719 19.824219 8.898438 19.726562 8.992188 Z M 19.726562 8.992188 " fill-opacity="1" fill-rule="nonzero"/><g clip-path="url(#44d81077be)"><path fill="#4745d2" d="M 14.890625 71.25 C 14.988281 73.261719 15.65625 74.746094 17.332031 75.988281 C 20.636719 78.433594 25.234375 77.855469 29.066406 77.855469 C 47.167969 78.050781 65.269531 78.144531 83.417969 78.191406 C 101.378906 78.242188 119.335938 78.289062 137.246094 78.242188 C 154.964844 78.191406 172.683594 78.097656 190.402344 77.953125 C 194.710938 77.90625 198.972656 77.855469 203.285156 77.808594 C 206.589844 77.714844 211.089844 76.46875 211.902344 72.734375 C 212.144531 71.726562 212.046875 70.578125 212.09375 69.523438 C 212.144531 68.328125 212.144531 67.128906 212.191406 65.933594 C 212.238281 63.730469 212.285156 61.574219 212.335938 59.371094 C 212.527344 50.945312 212.574219 42.515625 212.574219 34.085938 C 212.527344 26.378906 212.429688 18.667969 212.144531 10.957031 C 212.09375 9.136719 212.144531 7.414062 210.992188 5.929688 C 209.890625 4.539062 208.214844 3.679688 206.492188 3.246094 C 204.335938 2.71875 202.085938 2.816406 199.882812 2.769531 C 197.585938 2.71875 195.285156 2.71875 192.988281 2.671875 C 174.886719 2.433594 156.785156 2.242188 138.632812 2.195312 C 120.53125 2.144531 102.429688 2.144531 84.28125 2.242188 C 66.082031 2.335938 47.933594 2.527344 29.738281 2.769531 C 27.535156 2.816406 25.28125 2.769531 23.078125 2.863281 C 21.210938 2.960938 19.25 3.390625 17.621094 4.445312 C 16.039062 5.449219 15.035156 6.886719 14.84375 8.800781 C 14.652344 11.054688 14.605469 13.351562 14.507812 15.601562 C 14.125 24.125 13.933594 32.699219 13.933594 41.222656 C 13.933594 49.316406 14.125 57.359375 14.507812 65.453125 C 14.699219 67.371094 14.796875 69.332031 14.890625 71.25 Z M 206.109375 72.492188 C 206.011719 72.542969 206.0625 72.542969 206.109375 72.492188 Z M 18.914062 31.453125 C 18.960938 27.289062 19.105469 23.167969 19.25 19.003906 C 19.34375 16.894531 19.441406 14.742188 19.535156 12.632812 C 19.585938 11.53125 19.632812 10.476562 19.726562 9.425781 C 19.726562 9.378906 19.726562 9.183594 19.726562 9.042969 C 19.585938 9.136719 19.679688 9.089844 19.726562 8.992188 C 19.726562 8.800781 19.726562 8.707031 19.726562 8.945312 C 19.777344 8.898438 19.777344 8.898438 19.824219 8.851562 C 19.824219 8.851562 19.777344 8.898438 19.777344 8.898438 C 19.871094 8.800781 19.917969 8.753906 20.015625 8.660156 C 20.351562 8.46875 19.726562 8.851562 20.0625 8.609375 C 20.207031 8.515625 20.351562 8.417969 20.492188 8.371094 C 20.828125 8.179688 20.78125 8.226562 21.164062 8.085938 C 21.980469 7.796875 22.746094 7.699219 23.558594 7.652344 C 25.808594 7.558594 28.011719 7.605469 30.261719 7.558594 C 34.621094 7.507812 38.980469 7.460938 43.335938 7.414062 C 52.101562 7.316406 60.863281 7.222656 69.628906 7.175781 C 87.15625 7.03125 104.683594 6.984375 122.257812 6.984375 C 139.785156 6.984375 157.3125 7.078125 174.886719 7.269531 C 180.871094 7.316406 186.90625 7.414062 192.890625 7.507812 C 192.125 8.132812 191.359375 8.753906 190.59375 9.378906 C 190.257812 9.664062 190.066406 10.238281 190.066406 10.671875 C 190.066406 11.101562 190.257812 11.628906 190.59375 11.964844 C 190.929688 12.296875 191.40625 12.488281 191.886719 12.488281 C 192.367188 12.488281 192.75 12.296875 193.179688 11.964844 C 194.953125 10.527344 196.675781 9.042969 198.445312 7.605469 C 199.355469 7.605469 200.316406 7.652344 201.226562 7.652344 C 202.46875 7.652344 203.761719 7.605469 204.960938 7.84375 C 200.984375 11.003906 197.011719 14.214844 193.082031 17.375 C 192.316406 17.996094 192.460938 19.289062 193.082031 19.914062 C 193.851562 20.679688 194.855469 20.535156 195.621094 19.914062 C 199.597656 16.75 203.523438 13.589844 207.5 10.429688 C 207.59375 12.539062 207.640625 14.691406 207.691406 16.800781 C 207.640625 16.800781 207.640625 16.800781 207.59375 16.800781 C 207.113281 16.800781 206.683594 16.992188 206.300781 17.328125 C 204.71875 18.714844 203.09375 20.054688 201.511719 21.445312 C 201.175781 21.730469 200.984375 22.308594 200.984375 22.738281 C 200.984375 23.167969 201.175781 23.695312 201.511719 24.03125 C 201.847656 24.367188 202.328125 24.558594 202.804688 24.558594 C 203.285156 24.558594 203.714844 24.367188 204.097656 24.03125 C 205.34375 22.976562 206.539062 21.921875 207.785156 20.871094 C 208.121094 36.960938 207.929688 53.050781 207.5 69.09375 C 207.5 69.667969 207.449219 70.242188 207.449219 70.816406 C 207.449219 71.058594 207.402344 71.34375 207.449219 71.585938 C 207.449219 71.679688 207.449219 71.726562 207.449219 71.777344 C 207.449219 71.777344 207.5 71.726562 207.5 71.679688 C 207.5 71.726562 207.449219 71.777344 207.449219 71.824219 C 207.402344 71.871094 207.210938 72.0625 207.113281 72.160156 C 207.164062 72.109375 206.683594 72.398438 206.539062 72.492188 C 206.445312 72.542969 206.398438 72.542969 206.398438 72.589844 C 206.253906 72.636719 206.0625 72.734375 205.917969 72.78125 C 205.105469 73.019531 204.386719 73.117188 203.523438 73.164062 C 186.425781 73.355469 169.332031 73.5 152.234375 73.546875 C 134.945312 73.644531 117.707031 73.644531 100.417969 73.59375 C 82.988281 73.546875 65.558594 73.5 48.125 73.355469 C 43.71875 73.308594 39.3125 73.308594 34.910156 73.261719 C 33.425781 73.261719 31.988281 73.210938 30.503906 73.210938 C 31.171875 72.542969 31.84375 71.871094 32.515625 71.199219 C 32.847656 70.867188 33.039062 70.386719 33.039062 69.90625 C 33.039062 69.476562 32.847656 68.949219 32.515625 68.613281 C 31.796875 67.945312 30.695312 67.898438 29.976562 68.613281 C 28.585938 69.957031 27.246094 71.34375 25.859375 72.683594 C 25.714844 72.828125 25.617188 72.972656 25.523438 73.164062 C 24.421875 73.164062 23.367188 73.164062 22.363281 72.925781 C 21.644531 72.78125 21.070312 72.589844 20.589844 72.300781 C 20.542969 72.253906 20.492188 72.207031 20.398438 72.207031 C 20.6875 72.109375 20.925781 71.96875 21.164062 71.777344 C 24.132812 68.949219 27.101562 66.078125 30.023438 63.25 C 30.695312 62.582031 30.742188 61.335938 30.023438 60.714844 C 29.304688 60.042969 28.203125 59.996094 27.484375 60.714844 C 24.898438 63.203125 22.3125 65.695312 19.726562 68.183594 C 19.726562 67.800781 19.679688 67.417969 19.679688 67.082031 C 19.632812 65.886719 19.585938 64.6875 19.535156 63.492188 C 19.632812 63.441406 19.726562 63.347656 19.824219 63.300781 C 21.402344 61.910156 23.03125 60.570312 24.613281 59.179688 C 24.949219 58.894531 25.140625 58.320312 25.140625 57.886719 C 25.140625 57.457031 24.949219 56.929688 24.613281 56.59375 C 24.277344 56.257812 23.796875 56.066406 23.320312 56.066406 C 22.839844 56.066406 22.410156 56.257812 22.027344 56.59375 C 21.117188 57.359375 20.253906 58.128906 19.34375 58.894531 C 19.296875 57.746094 19.25 56.644531 19.25 55.492188 C 18.816406 47.449219 18.769531 39.449219 18.914062 31.453125 Z M 18.914062 31.453125 " fill-opacity="1" fill-rule="nonzero"/></g><path fill="#4745d2" d="M 207.257812 71.632812 C 207.164062 71.824219 207.210938 71.824219 207.257812 71.632812 Z M 207.257812 71.632812 " fill-opacity="1" fill-rule="nonzero"/><path fill="#4745d2" d="M 80.210938 58.703125 C 80.210938 59.945312 81.3125 61.144531 82.605469 61.097656 C 83.898438 61.046875 85.046875 60.042969 85 58.703125 C 84.855469 49.554688 84.664062 40.457031 84.519531 31.308594 C 84.472656 28.722656 84.425781 26.136719 84.378906 23.550781 C 84.378906 22.308594 83.277344 21.109375 81.984375 21.15625 C 80.691406 21.207031 79.539062 22.210938 79.589844 23.550781 C 79.730469 32.699219 79.921875 41.796875 80.066406 50.945312 C 80.113281 53.53125 80.164062 56.117188 80.210938 58.703125 Z M 80.210938 58.703125 " fill-opacity="1" fill-rule="nonzero"/><path fill="#4745d2" d="M 161.140625 58.84375 C 161.140625 59.179688 161.238281 59.46875 161.332031 59.753906 C 161.71875 60.617188 162.53125 61.238281 163.535156 61.191406 C 166.21875 61.335938 169.042969 60.90625 171.628906 60.28125 C 176.800781 59.039062 181.636719 56.257812 184.511719 51.710938 C 186.332031 48.789062 187.144531 45.339844 187.289062 41.941406 C 187.433594 38.109375 186.808594 34.183594 185.183594 30.6875 C 182.789062 25.660156 177.855469 22.449219 172.492188 21.445312 C 169.234375 20.824219 165.644531 20.628906 162.339844 21.300781 C 162.292969 21.300781 162.242188 21.300781 162.195312 21.347656 C 161.191406 21.539062 160.425781 22.691406 160.425781 23.648438 C 160.566406 32.792969 160.757812 41.894531 160.902344 51.039062 C 161.046875 53.671875 161.09375 56.257812 161.140625 58.84375 Z M 170.191406 25.945312 C 170.242188 25.945312 170.242188 25.945312 170.289062 25.945312 C 170.289062 25.945312 170.335938 25.945312 170.335938 25.945312 C 170.625 25.996094 170.863281 26.042969 171.152344 26.089844 C 171.675781 26.1875 172.15625 26.28125 172.683594 26.425781 C 173.210938 26.570312 173.738281 26.710938 174.261719 26.902344 C 174.359375 26.953125 174.503906 27 174.597656 27.046875 C 174.648438 27.046875 174.742188 27.09375 174.839844 27.144531 C 174.886719 27.144531 174.886719 27.191406 174.933594 27.191406 C 175.078125 27.238281 175.222656 27.335938 175.363281 27.382812 C 175.890625 27.621094 176.417969 27.910156 176.898438 28.246094 C 177.136719 28.390625 177.328125 28.53125 177.566406 28.675781 C 177.566406 28.675781 177.617188 28.722656 177.617188 28.722656 C 177.710938 28.773438 177.855469 28.914062 177.902344 28.964844 C 178.382812 29.347656 178.8125 29.777344 179.195312 30.207031 C 179.386719 30.398438 179.578125 30.6875 179.769531 30.878906 C 179.867188 31.023438 179.960938 31.167969 180.105469 31.308594 C 180.488281 31.882812 180.824219 32.507812 181.113281 33.128906 C 181.160156 33.226562 181.207031 33.367188 181.253906 33.511719 C 181.253906 33.5625 181.304688 33.609375 181.304688 33.65625 C 181.445312 34.039062 181.589844 34.421875 181.6875 34.804688 C 181.925781 35.570312 182.117188 36.339844 182.261719 37.152344 C 182.308594 37.34375 182.308594 37.488281 182.355469 37.679688 C 182.355469 37.679688 182.355469 37.632812 182.355469 37.632812 C 182.355469 37.679688 182.355469 37.726562 182.355469 37.773438 C 182.355469 37.773438 182.355469 37.824219 182.355469 37.824219 C 182.355469 37.824219 182.355469 37.871094 182.355469 37.871094 C 182.355469 37.871094 182.355469 37.917969 182.355469 37.917969 C 182.40625 38.398438 182.453125 38.875 182.5 39.355469 C 182.546875 40.265625 182.546875 41.222656 182.546875 42.132812 C 182.546875 42.5625 182.5 42.996094 182.453125 43.425781 C 182.453125 43.472656 182.40625 43.617188 182.40625 43.714844 C 182.40625 43.664062 182.453125 43.570312 182.453125 43.472656 C 182.40625 43.714844 182.40625 43.90625 182.355469 44.144531 C 182.214844 44.910156 182.023438 45.628906 181.828125 46.394531 C 181.734375 46.683594 181.636719 47.015625 181.496094 47.304688 C 181.496094 47.304688 181.445312 47.398438 181.445312 47.449219 C 181.398438 47.542969 181.304688 47.785156 181.253906 47.878906 C 180.96875 48.453125 180.679688 49.027344 180.296875 49.554688 C 180.152344 49.792969 179.960938 50.035156 179.769531 50.273438 C 179.675781 50.417969 179.578125 50.511719 179.4375 50.65625 C 179.050781 51.136719 178.574219 51.566406 178.140625 51.949219 C 177.949219 52.140625 177.710938 52.332031 177.519531 52.476562 C 177.375 52.574219 177.28125 52.667969 177.136719 52.714844 C 176.179688 53.386719 175.171875 53.960938 174.121094 54.441406 C 174.023438 54.488281 173.929688 54.535156 173.832031 54.582031 C 173.59375 54.679688 173.304688 54.773438 173.066406 54.871094 C 172.539062 55.0625 172.011719 55.207031 171.535156 55.398438 C 170.578125 55.683594 169.617188 55.875 168.613281 56.066406 C 168.375 56.117188 168.183594 56.164062 167.941406 56.164062 C 167.894531 56.164062 167.796875 56.164062 167.75 56.210938 C 167.367188 56.257812 166.984375 56.308594 166.648438 56.355469 C 166.410156 56.355469 166.121094 56.402344 165.882812 56.402344 C 165.738281 48.070312 165.597656 39.785156 165.453125 31.453125 C 165.402344 29.585938 165.402344 27.671875 165.355469 25.800781 C 166.984375 25.707031 168.613281 25.753906 170.191406 25.945312 Z M 170.191406 25.945312 " fill-opacity="1" fill-rule="nonzero"/><path fill="#4745d2" d="M 182.40625 43.714844 C 182.355469 43.953125 182.40625 43.855469 182.40625 43.714844 Z M 182.40625 43.714844 " fill-opacity="1" fill-rule="nonzero"/><path fill="#4745d2" d="M 41.949219 41.605469 C 41.949219 41.652344 41.949219 41.703125 41.949219 41.703125 C 41.996094 44.765625 42.042969 47.832031 42.140625 50.894531 C 42.1875 53.480469 42.234375 56.066406 42.285156 58.652344 C 42.285156 59.898438 43.382812 61.097656 44.675781 61.046875 C 45.96875 61 47.121094 59.996094 47.070312 58.652344 C 46.976562 53.722656 46.878906 48.742188 46.785156 43.808594 C 52.195312 43.519531 57.558594 43.234375 62.972656 42.945312 C 63.019531 45.582031 63.066406 48.214844 63.113281 50.894531 C 63.164062 53.480469 63.210938 56.066406 63.257812 58.652344 C 63.257812 59.898438 64.359375 61.097656 65.652344 61.046875 C 66.945312 61 68.09375 59.996094 68.046875 58.652344 C 67.953125 52.667969 67.808594 46.683594 67.710938 40.695312 C 67.710938 40.601562 67.710938 40.503906 67.710938 40.410156 C 67.710938 40.359375 67.710938 40.3125 67.710938 40.265625 C 67.664062 37.246094 67.617188 34.277344 67.566406 31.261719 C 67.519531 28.675781 67.472656 26.089844 67.425781 23.503906 C 67.425781 22.257812 66.324219 21.0625 65.03125 21.109375 C 63.738281 21.15625 62.589844 22.164062 62.636719 23.503906 C 62.730469 28.386719 62.828125 33.273438 62.921875 38.207031 C 57.511719 38.492188 52.148438 38.78125 46.738281 39.066406 C 46.6875 36.480469 46.640625 33.894531 46.59375 31.308594 C 46.546875 28.722656 46.496094 26.136719 46.449219 23.550781 C 46.449219 22.308594 45.347656 21.109375 44.054688 21.15625 C 42.761719 21.207031 41.613281 22.210938 41.660156 23.550781 C 41.757812 29.488281 41.898438 35.429688 41.996094 41.367188 C 41.949219 41.414062 41.949219 41.511719 41.949219 41.605469 Z M 41.949219 41.605469 " fill-opacity="1" fill-rule="nonzero"/><path fill="#4745d2" d="M 95.917969 59.132812 C 95.917969 60.378906 97.019531 61.574219 98.3125 61.527344 C 99.605469 61.480469 100.753906 60.472656 100.707031 59.132812 C 100.660156 55.636719 100.5625 52.140625 100.515625 48.597656 C 104.730469 52.714844 109.183594 56.644531 113.734375 60.378906 C 114.691406 61.191406 116.175781 61.382812 117.132812 60.378906 C 117.945312 59.515625 118.1875 57.839844 117.132812 56.976562 C 112.871094 53.480469 108.753906 49.84375 104.824219 46.058594 C 109.039062 45.390625 113.015625 42.945312 114.882812 39.117188 C 116.367188 36.050781 116.703125 32.363281 115.457031 29.105469 C 114.210938 25.945312 111.863281 23.410156 108.753906 22.019531 C 105.304688 20.488281 101.28125 20.152344 97.738281 21.492188 C 96.445312 21.539062 95.296875 22.546875 95.34375 23.886719 C 95.488281 33.035156 95.679688 42.132812 95.824219 51.28125 C 95.824219 53.960938 95.871094 56.546875 95.917969 59.132812 Z M 110.859375 30.496094 C 110.859375 30.449219 110.8125 30.398438 110.8125 30.398438 C 110.8125 30.398438 110.859375 30.449219 110.859375 30.496094 Z M 109.902344 28.867188 C 109.855469 28.820312 109.855469 28.773438 109.804688 28.722656 C 109.804688 28.722656 109.855469 28.773438 109.902344 28.867188 Z M 101.28125 25.5625 C 101.28125 25.5625 101.328125 25.5625 101.328125 25.5625 C 101.664062 25.5625 102 25.515625 102.335938 25.515625 C 102.671875 25.515625 103.003906 25.515625 103.390625 25.5625 C 103.53125 25.5625 103.675781 25.5625 103.820312 25.609375 C 103.914062 25.609375 103.964844 25.609375 104.011719 25.609375 C 104.25 25.660156 104.585938 25.753906 104.777344 25.800781 C 105.113281 25.898438 105.449219 25.996094 105.785156 26.089844 C 105.925781 26.136719 106.117188 26.1875 106.261719 26.28125 C 106.308594 26.28125 106.359375 26.328125 106.453125 26.328125 C 106.691406 26.425781 106.882812 26.570312 107.125 26.664062 C 107.410156 26.808594 107.699219 27 107.984375 27.191406 C 108.082031 27.238281 108.175781 27.335938 108.273438 27.382812 C 108.371094 27.429688 108.464844 27.527344 108.5625 27.574219 C 108.753906 27.71875 108.753906 27.71875 108.464844 27.527344 C 108.945312 27.71875 109.46875 28.386719 109.757812 28.773438 C 109.804688 28.820312 109.804688 28.867188 109.855469 28.914062 C 109.902344 28.964844 109.902344 29.011719 109.949219 29.011719 C 109.996094 29.058594 109.996094 29.105469 110.046875 29.105469 C 110.285156 29.441406 110.476562 29.777344 110.667969 30.160156 C 110.714844 30.207031 110.761719 30.304688 110.8125 30.398438 C 110.8125 30.449219 110.8125 30.449219 110.859375 30.542969 C 110.957031 30.878906 111.097656 31.214844 111.195312 31.550781 C 111.289062 31.835938 111.339844 32.125 111.386719 32.410156 C 111.386719 32.460938 111.386719 32.507812 111.433594 32.601562 C 111.480469 32.890625 111.480469 32.84375 111.433594 32.460938 C 111.53125 32.652344 111.480469 32.9375 111.480469 33.128906 C 111.480469 33.417969 111.480469 33.703125 111.480469 33.992188 C 111.480469 34.183594 111.480469 34.328125 111.433594 34.519531 C 111.433594 34.566406 111.433594 34.566406 111.433594 34.613281 C 111.339844 34.855469 111.339844 35.1875 111.289062 35.429688 C 111.195312 35.8125 111.097656 36.195312 110.957031 36.578125 C 110.90625 36.625 110.859375 36.769531 110.859375 36.816406 C 110.859375 36.863281 110.8125 36.914062 110.8125 36.960938 C 110.667969 37.296875 110.476562 37.582031 110.285156 37.871094 C 110.238281 37.964844 110.140625 38.0625 110.09375 38.15625 C 110.09375 38.207031 110.046875 38.207031 110.046875 38.253906 C 110.046875 38.253906 110.046875 38.253906 110.046875 38.207031 C 109.949219 38.445312 109.566406 38.734375 109.375 38.925781 C 109.136719 39.164062 108.894531 39.355469 108.65625 39.59375 C 108.65625 39.59375 108.65625 39.59375 108.609375 39.59375 C 108.511719 39.640625 108.417969 39.738281 108.320312 39.785156 C 107.746094 40.167969 107.171875 40.503906 106.550781 40.792969 C 106.550781 40.792969 106.5 40.792969 106.5 40.792969 C 106.308594 40.886719 106.070312 40.933594 105.878906 41.03125 C 105.542969 41.128906 105.207031 41.222656 104.875 41.320312 C 104.730469 41.367188 104.539062 41.414062 104.347656 41.414062 C 104.296875 41.414062 103.582031 41.558594 103.964844 41.460938 C 104.347656 41.367188 103.820312 41.460938 103.773438 41.460938 C 103.53125 41.460938 103.292969 41.511719 103.101562 41.511719 C 102.765625 41.511719 102.429688 41.511719 102.046875 41.511719 C 101.855469 41.511719 101.710938 41.511719 101.519531 41.460938 C 101.425781 41.460938 101.328125 41.460938 101.28125 41.414062 C 100.996094 41.367188 100.707031 41.320312 100.46875 41.222656 C 100.417969 38.0625 100.371094 34.902344 100.277344 31.691406 C 100.226562 29.730469 100.226562 27.765625 100.179688 25.753906 C 100.417969 25.707031 100.609375 25.660156 100.851562 25.609375 C 100.945312 25.609375 101.089844 25.609375 101.28125 25.5625 Z M 101.28125 25.5625 " fill-opacity="1" fill-rule="nonzero"/><path fill="#4745d2" d="M 128.003906 58.703125 C 128.003906 59.996094 129.105469 61.097656 130.398438 61.097656 C 135.855469 61.097656 141.316406 61.097656 146.824219 61.097656 C 147.589844 61.097656 148.402344 61.097656 149.171875 61.097656 C 150.414062 61.097656 151.613281 59.996094 151.566406 58.703125 C 151.515625 57.410156 150.511719 56.308594 149.171875 56.308594 C 143.710938 56.308594 138.25 56.308594 132.746094 56.308594 C 132.648438 51.757812 132.601562 47.207031 132.503906 42.660156 C 136.238281 42.660156 139.976562 42.660156 143.710938 42.660156 C 144.957031 42.660156 146.152344 41.558594 146.105469 40.265625 C 146.058594 38.972656 145.050781 37.871094 143.710938 37.871094 C 139.976562 37.871094 136.191406 37.871094 132.457031 37.871094 C 132.410156 35.667969 132.359375 33.511719 132.359375 31.308594 C 132.3125 29.539062 132.3125 27.71875 132.265625 25.945312 C 136.574219 25.945312 140.886719 25.945312 145.148438 25.945312 C 145.867188 25.945312 146.585938 25.945312 147.300781 25.945312 C 148.546875 25.945312 149.746094 24.84375 149.695312 23.550781 C 149.648438 22.257812 148.644531 21.15625 147.300781 21.15625 C 142.179688 21.15625 137.054688 21.15625 131.976562 21.15625 C 131.261719 21.15625 130.542969 21.15625 129.824219 21.15625 C 128.53125 21.15625 127.429688 22.257812 127.429688 23.550781 C 127.574219 32.699219 127.765625 41.796875 127.90625 50.945312 C 127.90625 53.53125 127.957031 56.117188 128.003906 58.703125 Z M 128.003906 58.703125 " fill-opacity="1" fill-rule="nonzero"/><path fill="#4745d2" d="M 200.839844 68.613281 C 202.132812 67.320312 203.09375 65.550781 203.332031 63.730469 C 203.425781 63.492188 203.425781 63.25 203.378906 63.011719 C 203.378906 62.773438 203.285156 62.53125 203.1875 62.339844 C 202.949219 61.957031 202.566406 61.625 202.132812 61.527344 C 201.65625 61.433594 201.175781 61.433594 200.746094 61.71875 C 200.363281 61.957031 199.980469 62.339844 199.933594 62.773438 C 199.835938 63.300781 199.738281 63.777344 199.546875 64.304688 C 199.355469 64.734375 199.117188 65.167969 198.832031 65.550781 C 198.6875 65.742188 198.542969 65.933594 198.351562 66.078125 C 198.015625 66.410156 197.824219 66.890625 197.824219 67.371094 C 197.824219 67.800781 198.015625 68.328125 198.351562 68.664062 C 199.023438 69.285156 200.125 69.332031 200.839844 68.613281 Z M 200.839844 68.613281 " fill-opacity="1" fill-rule="nonzero"/><path fill="#4745d2" d="M 23.796875 22.355469 C 24.804688 22.308594 25.570312 21.589844 25.617188 20.535156 C 25.714844 18.621094 25.761719 16.65625 25.859375 14.742188 C 25.90625 13.78125 24.996094 12.921875 24.039062 12.921875 C 23.03125 12.96875 22.265625 13.6875 22.21875 14.742188 C 22.121094 16.65625 22.074219 18.621094 21.980469 20.535156 C 21.929688 21.492188 22.839844 22.402344 23.796875 22.355469 Z M 23.796875 22.355469 " fill-opacity="1" fill-rule="nonzero"/></svg>